<?xml version="1.0" encoding="UTF-8"?>
<svg enable-background="new 0 0 809.6 907.2" version="1.1" viewBox="0 0 809.6 907.2" xml:space="preserve" xmlns="http://www.w3.org/2000/svg">
<style type="text/css">
	.st0{fill-rule:evenodd;clip-rule:evenodd;fill:#F1CB9D;}
	.st1{fill:none;stroke:#000000;stroke-width:4;stroke-linecap:square;}
	.st2{fill-rule:evenodd;clip-rule:evenodd;fill:#FFFFFF;}
	.st3{fill:none;stroke:#000000;stroke-width:4;}
</style>
<g transform="translate(29.684 21.307)">
	<path class="st0" d="m-29.7-19.7v905.7h809.6v-907.3l-809.6 1.6z"/>
	<path class="st1" d="m15.7 18.9h711.7"/>
	<path class="st1" d="m15.7 111.4h711.7"/>
	<path class="st1" d="m15.7 203.9h711.7"/>
	<path class="st1" d="m15.7 296.5h711.7"/>
	<path class="st1" d="m16.6 389h710.8"/>
	<path class="st1" d="m16.9 481.5h710.4"/>
	<path class="st1" d="m16.9 574h710.4"/>
	<path class="st1" d="m17.2 666.6h710.1"/>
	<path class="st1" d="m17.7 759.1h709.6"/>
	<path class="st1" d="m728.5 18.9 1.7 831.6"/>
	<path class="st1" d="m15.7 18.9 1.7 831.5"/>
	<path class="st1" d="m17.7 850.5h709.6"/>
	<path class="st1" d="m461.2 18.9 1.7 831.6"/>
	<path class="st1" d="m193.9 18.9 1.7 831.5"/>
	<path class="st1" d="m372.1 18.9 1.7 831.6"/>
	<path class="st1" d="m104.8 18.9 1.7 831.5"/>
	<path class="st1" d="m550.3 18.9 1.7 831.6"/>
	<path class="st1" d="m283 18.9 1.7 831.5"/>
	<path class="st1" d="m639.4 18.9 1.7 831.6"/>
	<path class="st2" d="m18.8 390.2v90.5h708.6v-91l-708.6 0.5z"/>
	<path d="m142.1 411.2c0.6 0.2 0.9 1.1 1.1 2.8-0.1 1.6-0.8 2.9-2.2 3.8-1.6 0.6-3.2 1.2-4.8 1.7 1.3 0.1 2.6 0.4 4.1 0.9 1 0.6 1.5 1.4 1.5 2.4-0.5 4-1.3 6-2.4 6-0.2-0.1-0.6-0.6-1.1-1.4-0.6-1.1-1.5-2.2-2.6-3.4 0.1 6.5 0.4 11 0.9 13.4 0 0.6-0.1 1.1-0.3 1.5 6.5-1.7 12.1-2.7 16.8-3l-0.1-0.1c0-0.6 0.2-1 0.5-1.4 0.1-0.6 0.2-1.3 0.2-2.1l0.1-7.7-7.3 6.2c-1.8 1.4-2.9 2.1-3.6 2.1-0.5 0-1.3-0.3-2.4-0.9-0.7-0.5-1.1-1-1.1-1.6 0-0.4 0.4-0.7 1.1-1.1 2.3-1.3 4.6-3.3 7.1-6 2.1-2.2 3.8-4.4 5-6.5-2.1 0.5-4.4 1-6.9 1.7-0.7 0-1.3-1.1-1.7-3.3-0.3-1.6-0.4-2.5-0.4-2.9 0-0.8 0.6-1.1 1.7-1.1 2.3 0 5.2-0.4 8.6-1l0.1-11.2c0-0.6-0.1-1.3-0.4-2.1 0-0.3 0.2-0.6 0.5-0.9 0.5-0.3 1.3-0.5 2.6-0.5 0.8 0 1.9 0.2 3.1 0.6 0.9 0.5 1.4 0.9 1.4 1.2 0 0.2-0.1 0.6-0.4 1.2-0.4 1-0.7 2.7-0.9 5.1-0.1 1.9-0.2 3.8-0.3 5.5 2-0.5 4.1-1 6.3-1.6 1.5-0.5 2.5-0.8 3-0.9 0.6 0.2 0.9 1.2 1 2.9-0.1 1.5-0.7 2.7-2 3.8-3 0.9-5.8 1.6-8.4 2.1-0.1 1.2-0.1 2.2-0.2 3.2 3.6 0.5 7.9 1.9 12.7 4 1.1 0.8 1.7 1.9 1.7 3.1-0.4 4-1.2 6-2.4 6-0.6-0.1-1.7-0.9-3.2-2.4-2-1.9-4.9-4-8.9-6.2-0.1 2.6-0.2 4.6-0.2 6 0 1.2 0 2.2 0.1 3 0.2 1.3 0.3 2.5 0.3 3.3v0.1c6.1 0.3 10.3 1.9 12.5 4.8 1.7 3.4 2.5 5.7 2.5 7 0 0.9-0.6 1.3-1.7 1.3-0.4 0-1.1 0-2.2-0.1-1.2 0-2.5-0.1-4-0.2-1.2 0-2.9-0.1-5.1-0.3 0.1 0.1 0.1 0.1 0.1 0.2-0.1 1.5-0.7 2.6-1.8 3.5-2.3 1-4.3 1.6-6.2 1.9-1.3 0.2-2.7 0.6-4.2 1.1-0.2 3-0.4 5-0.4 5.9 0.7 0.4 1.4 0.7 2 1 2.3 1.2 5.1 2.3 8.3 3.4 3.4 0.8 9.4 2.1 18 3.8 3.9 2.1 5.9 3.5 5.9 4.2-0.2 1.1-3.3 1.6-9.5 1.6-2.4 0-6.9-0.2-13.6-0.5-1.1 0-2-0.6-2.6-1.8-1-1.7-2.5-2.8-4.4-3.3-2.6-0.8-4.9-1.8-6.9-3.2-3.6-2.1-8.4-4-14.7-5.7-0.7-0.2-1.3-0.4-1.8-0.6-0.5 0.6-1 1.3-1.5 1.8-1.3 1.7-2.4 4.6-3.5 8.5-3 1.9-5.8 2.8-8.6 2.8-3-0.3-4.5-0.9-4.5-1.8 0-0.4 0.7-1 2-1.6 4-2.3 7.4-5.6 10.2-9.7 2.6-3.7 4.6-7.4 5.8-11 1.3-1.8 2.3-2.7 2.8-2.7 3 1.1 4.5 2.1 4.5 3.1-0.8 1.5-1.7 3-2.8 4.6 0.7 0.4 1.5 0.9 2.4 1.6 2.4 1 4.6 2 6.5 2.8 0.2-3.8 0.3-9.4 0.4-16.6-1 0.2-2 0.4-3.1 0.6-7.9 1.7-12.9 3.3-14.8 4.7-0.9 1.2-1.5 1.8-1.6 1.8-0.8 0-1.5-0.6-2.2-1.8-0.5-0.9-0.7-1.7-0.7-2.4 0-1.2 1.1-2 3.2-2.5 3.3-1.1 6.5-2.1 9.5-2.9-0.5-0.2-1.2-0.5-2-0.9-1.6-0.6-2.4-1.4-2.4-2.4 0-0.2 0.3-0.9 1-2 0-0.9 0-3.2 0.1-7l-8.8 8.5c-1.8 1.8-3 2.6-3.8 2.6-0.5 0-1.2-0.3-2.1-0.9-0.7-0.4-1-0.8-1-1.2 0-0.5 0.4-0.9 1.2-1.4 2.3-1.6 4.8-3.9 7.3-7.1 1.7-2.2 3.2-4.4 4.4-6.5-2.2 0.4-4.5 1.1-7.1 2-0.7 0-1.3-1.2-1.8-3.7-0.4-1.8-0.6-2.9-0.6-3.3 0-1 0.6-1.5 1.8-1.5 2.7 0 6.2-0.4 10.5-1.1v-8.2l-0.8-6c0.2-0.8 0.7-1.4 1.5-1.7 0.8 0.1 2.3 0.7 4.4 1.7 1.9 1.1 2.9 2 2.9 2.5 0 0.2-0.3 0.4-0.8 0.8-0.5 0.3-1.1 1-1.6 2.2-0.3 1.6-0.6 4.2-0.8 7.9 1.1-0.2 2.3-0.5 3.6-0.7 2.1 0.1 3-0.2 3.4-0.2m8 36.5c2.4-0.2 5.3-0.6 8.8-1.2 0.9-0.2 1.4-0.4 1.7-0.4s0.5 0.3 0.7 0.7c3-1.3 4.5-2.9 4.5-4.9 0-1.2-3-1.8-9.1-1.8-1.8 0-3.6 0.1-5.4 0.3-0.4 0.9-0.7 2-0.9 3.3 0 1.5-0.1 2.8-0.3 4"/>
	<path d="m246.9 404.2c0.5 0 1.1 0.9 1.8 2.5 0.5 2 1 3.5 1.7 4.4 1.5 2.6 2.3 4.6 2.3 6.1 0 0.8-0.3 1.3-0.8 1.7-0.8 0.5-1.7 0.8-2.7 0.8-1.6 0-3.3-0.7-5.1-2-1.3-0.9-1.9-1.8-1.9-2.6 0-3.4 0.7-6.3 2.2-8.6 1.1-1.6 2-2.3 2.5-2.3m-6.7 20.7c0.8 0 1.5 0.4 2.2 1.3 0.8 0.8 1.8 1.4 3 2 0.8 0.5 1.1 1.2 1.1 2.2 0 0.6-0.3 1.2-1 1.7-2 1.8-3.7 4.2-5.1 7.1-1.3 3.1-1.9 5.9-1.9 8.4 0 2.1 0.4 4 1.2 5.7 1.3 1.5 3 2.3 5.1 2.3 0.7 0 1.7-1.3 3.1-3.8 2.5-5.2 4.2-10 5.2-14.4 0.4 0 0.6 0.5 0.6 1.5 0 4-0.5 7.9-1.4 11.7-0.8 3.5-1.8 6.4-3 8.5-1 1.6-1.8 3.3-2.5 5.1-0.5 1.9-1.1 2.9-1.7 2.9-1.6 0-3.6-1.4-5.9-4.3-2.7-3.5-4-8.5-4-15.2 0-4.6 1.2-11.3 3.5-19.9 0.4-1.9 0.9-2.8 1.5-2.8m54.8-7.1c-0.8 0-1.8 0-3 0.1 0 2 0.1 5.4 0.2 10.1v18.3l0.1 17.5c0.2 1.2 0.5 2.8 1.1 5 0 1.3-0.5 2-1.5 2-0.1 0-0.5-0.1-1.4-0.4-0.8-0.6-2.8-1.3-5.9-2.1-3.4-0.8-7.1-2.5-11.3-5.1-2.7-1.6-4.7-3.1-5.8-4.6 0.1-0.2 0.3-0.3 0.7-0.4 6 1.9 11.3 2.8 15.6 2.8 1.2-0.1 1.8-3.3 1.8-9.5 0-6-0.3-16.6-0.8-31.7 0-0.7-0.1-1.3-0.3-1.6-2.4 0.2-5.1 0.4-8.1 0.6-7.3 0.8-13.5 2.1-18.8 3.8-0.5 0-1.3-0.6-2.2-1.9-1.1-1.9-1.7-2.9-1.7-3.2 0-0.7 0.6-1.2 1.8-1.4 3.6-0.2 8.2-0.9 13.9-2.3 4.4-0.7 9.2-1.5 14.6-2.4 4.1-0.2 7.5-0.8 10.2-1.7 1.8-0.6 3.2-1 4.3-1 1.2 0 2.6 2.7 4.1 8-0.1 0.9-0.8 1.3-2 1.3l-5.6-0.2m-38.6 11.5 2 0.4c5.9-1.6 10.2-2.6 13.1-2.8 2.2-0.5 3.3-0.7 3.4-0.7 1 0 2.3 0.6 3.8 1.8 1.2 1.1 1.7 2.1 1.7 3.1 0 0.3-0.3 0.7-0.8 1.3-0.6 0.9-1.8 4.2-3.5 10-0.4 1.5-0.8 2.4-1.2 2.5-0.8 0-1.6-0.4-2.5-1-5.2 1-8.1 1.8-8.8 2.4-0.6 0.4-1 0.5-1.4 0.5-1.3-0.1-2.9-2.6-4.7-7.4-1.5-4-2.2-6.6-2.2-7.9 0-1.4 0.4-2.2 1.1-2.2m7.7 11.2c0.8 0 2.9-0.3 6.3-1 0.4-0.1 0.6-0.6 0.9-1.4 0.4-1.6 0.5-3.3 0.5-5 0-1.6-0.4-2.4-1-2.4-1.2 0-2.7 0.3-4.7 1-2.5 0.9-3.8 1.7-3.8 2.5 0 4.2 0.7 6.3 1.8 6.3"/>
	<path d="m642.2 463.5c-0.5 0-1-0.9-1.6-2.6-0.5-2.1-1-3.6-1.8-4.5-1.5-2.6-2.2-4.7-2.2-6.2 0-0.8 0.3-1.3 0.8-1.8 0.8-0.4 1.7-0.6 2.7-0.6 1.5 0 3.2 0.6 5 1.9 1.3 0.9 1.9 1.8 1.9 2.6 0 3.5-0.7 6.5-2.1 8.9-1.2 1.6-2.2 2.3-2.7 2.3m7.3-21c-0.7 0-1.4-0.4-2.1-1.2-0.8-0.6-1.8-1.3-3-1.8-0.8-0.5-1.2-1.2-1.2-2.1 0-0.5 0.3-1 1-1.6 2-1.5 3.7-3.5 5.1-6.1 1.3-2.8 2-5.2 2-7.3 0-2-0.5-3.8-1.4-5.2-1.2-1.4-2.8-2.1-4.9-2.1-0.7 0-1.8 1.6-3.1 4.9-2.6 6.8-4.3 13-5.2 18.8-0.5 0-0.8-0.4-0.8-1.3 0-5 0.5-9.7 1.6-14.3 0.7-4.5 1.7-8 3-10.5 0.9-1.9 1.7-4 2.4-6.2 0.5-2.5 1.2-3.7 1.9-3.7 1.6 0 3.5 1.5 5.9 4.4 2.8 3.5 4.2 8.6 4.2 15.3 0 4.1-1.4 10-4.3 17.8-0.2 1.4-0.5 2.2-1.1 2.2m-50.9 16c1.3 0 3.5-0.1 6.5-0.3 0.8-1.4 1.7-2.8 2.7-4.3h-0.3c-0.7 0-1-1-1-3.1 0-0.5 0.6-1 1.7-1.4 1-0.2 2-0.3 3-0.4-0.1-0.1-0.1-0.1-0.1-0.2 0.2-0.9 0.4-1.8 0.6-2.9-1.6 0.2-3 0.3-4.3 0.4-3.7 0.5-5.7 0.7-5.8 0.7-1.2 0-2.7-0.6-4.5-1.8-1.5-1.2-2.2-2.2-2.2-3.1 0-0.2 0.4-0.5 1.1-1 0.9-0.6 2.4-3.1 4.6-7.5 0.5-1.2 1-1.8 1.6-2 0.8 0 1.7 0.2 2.8 0.7 3.1-0.3 5.8-0.6 8-0.9 0.1-1.3 0.2-2.5 0.3-3.8-3.4 0.4-7.3 0.9-11.9 1.6-0.7 0-1-1.2-1-3.5 0-0.6 0.6-1.1 1.8-1.5 4.6-0.8 8.6-1.4 12-1.8 0.2-1.5 0.5-2.9 0.7-4-2.3 0.3-4.8 0.6-7.3 1-4 0.2-7.4 0.6-10.2 1.2-1.8 0.6-3.2 0.9-4.2 0.9-0.9 0-1.9-2.2-3.2-6.6 0.1-0.5 0.7-0.7 1.8-0.7l4.5 0.4c2.5 0 7.3-0.2 14.7-0.6-1.3-1.1-3.4-3.2-6.4-6.2-1.8-1.9-4.8-3.6-8.9-5.2-4.2-1.6-6.7-2.8-7.4-3.8 0-0.9 2.1-1.4 6.2-1.4 2.8 0 5.2 0.1 6.9 0.2 1.5 0.2 2.4 0.6 2.6 1.3 0.3 1.2 1.3 2.3 2.9 3.5 1.8 1.4 3.4 2.9 4.8 4.4 1.3 1.5 2.7 2.6 4.1 3.3 0.7 0.4 1.1 0.8 1.3 1.3 0.8-1.6 1.6-3 2.5-4 1.3-1.7 2.1-3.5 2.4-5.3 2.7-2 5.5-3.6 8.2-4.7 2.1-0.4 3.9-0.6 5.4-0.6 1.9 0 2.8 0.2 2.8 0.7 0 0.1-0.7 0.6-2 1.4-4.8 2.6-8.5 5.5-11.3 8.8-1.3 1.5-2.3 3.3-3.1 5.4 4.4-0.5 8.4-1.1 12-1.9 0.4 0 0.9 0.5 1.6 1.5 0.8 1.5 1.2 2.4 1.2 2.6 0 0.4-0.4 0.6-1.1 0.7-3.5 0.1-8.1 0.7-13.7 1.7l-1.5 0.3c-0.2 1.2-0.4 2.5-0.6 3.9 0 0.1 0 0.2-0.1 0.3 2.3-0.3 4.8-0.7 7.5-1.2 0.6 0 1.1 0.6 1.7 1.9 0.3 0.9 0.5 1.8 0.5 2.7 0 0.5-0.4 0.7-1.1 0.7-1.4 0.1-4.5 0.4-9.3 0.9-0.1 1.2-0.2 2.4-0.3 3.7 2.3-0.3 3.8-0.6 4.5-0.9 1.2-0.4 2.1-0.5 2.7-0.5 1.2 0.1 2.7 2 4.5 5.9 1.5 3.3 2.2 5.4 2.2 6.5 0 1.2-0.4 1.8-1.1 1.8l-2-0.4c-4 0.8-7.5 1.5-10.6 1.9l0.1 3c0.3-0.1 0.7-0.1 1-0.2v-0.2c0-0.4 0.7-0.7 2.2-0.8 0.9 0 2.1 2.1 3.5 6.4l0.6 2.1c2-0.6 3.9-1.2 5.6-1.8 0.6 0 1.3 0.7 2.1 2 0.9 1.8 1.4 2.9 1.4 3.3 0 0.5-0.4 0.9-1.3 1-1.9 0.1-4.2 0.3-6.8 0.6 0.3 2.3 0.4 4.5 0.4 6.7 0 0.9-0.5 1.3-1.7 1.3-0.5 0-1.7-0.3-3.5-0.8-1.3-0.5-2.1-1-2.2-1.6 0.3-1.8 0.5-3.3 0.6-4.5-3.6 0.5-7.6 1.1-11.9 1.7-0.5 1.9-1 3.8-1.6 5.9-0.6 1.6-1.3 2.4-2.2 2.4-0.5 0-1.6-0.5-3.3-1.4-1.5-1-2.2-1.8-2.2-2.1 0-0.2 0.2-0.5 0.7-1 0.6-0.4 1.3-1.5 2-3.2-1.2 0.2-2.2 0.4-3.1 0.6-1.6 0.5-2.9 0.8-3.8 0.8s-2-2.2-3.2-6.5c0.1-0.5 0.6-0.8 1.7-0.8l4.5 0.4m21.9-6.1c-1.8 0.2-4.9 0.5-9.3 1.1-0.2 1.2-0.5 2.6-0.9 4.3 1.5-0.1 3-0.3 4.7-0.4 2-0.2 4-0.5 5.8-0.8-0.1-1.2-0.2-2.6-0.3-4.2m3.9-18.3c-1 0-3 0.1-5.8 0.4v5l0.1 2c4.8-0.9 7.2-1.7 7.2-2.5-0.1-3.2-0.6-4.9-1.5-4.9m-12.4 8.4c0.2-1.6 0.3-3.3 0.4-5.2 0.1-0.7 0.1-1.4 0.2-2-1.6 0.2-3.3 0.4-5.2 0.6-0.6 0.1-1.2 0.4-1.6 1-0.6 1.2-1 2.4-1 3.6 0 1.6 0.5 2.4 1.5 2.4 1.6-0.1 3.5-0.2 5.7-0.4"/>
	<path d="m525.2 463.9-2.4-0.4c-12.7 2.3-22.2 3.7-28.5 4-4.8 0.5-7.3 0.8-7.5 0.8-1.7 0-3.8-0.6-6.1-1.8-1.9-1.2-2.9-2.3-2.9-3.3 0-0.6 0.5-1.3 1.6-2.3 1.4-1.6 3.8-7.1 7.1-16.6 0.8-2.5 1.7-3.9 2.5-4.2 1 0 2.1 0.4 3.4 1 0.9-0.1 1.8-0.2 2.6-0.4-1-0.8-2.2-1.6-3.7-2.3-2.1-1.5-4.3-3.3-6.4-5.4-1.6-1.9-3.6-3.7-6.1-5.3-4.5-3.2-8.9-5.8-13.1-7.7-1.9-0.8-3.4-2-4.5-3.5 0-0.9 2-1.4 6-1.4 4.4 0 8.7 0.3 12.9 0.9 1.9 0.2 3 1 3.3 2.4 0.4 4.3 2.1 8 5.1 11.1 4.3 4.5 7.4 6.8 9.3 7 2.6 0.3 3.8 1 3.8 2 0 0.4 0 0.7-0.1 1.1 1.4-0.2 2.6-0.4 3.8-0.5-0.1-0.1-0.2-0.2-0.2-0.3 0-0.4 0.4-1 1.3-1.6 3.2-2.8 6-5.4 8.4-7.7-1.2-0.1-2.9-0.4-5.1-0.9-1.6-0.4-2.4-1-2.4-1.7 0-0.4 0.2-0.9 0.5-1.4 0.6-1.3 1.7-5.8 3.2-13.7l-0.4-2.5c1.2-2.7 3.1-5 5.8-6.7 1.6-1.5 4.5-2.6 8.6-3.6 0.8 0 1.1 0.2 1.1 0.7-1.7 1.4-3.7 3.3-5.9 5.7-2.2 2.3-3.6 4.8-4.3 7.5-0.4 2.5-0.6 5.9-0.6 10.1 0 0.9 0.2 2 0.7 3.3 0.2 0.5 0.3 1 0.4 1.3 2.6-2.7 4.8-5.1 6.5-7.1 1-0.9 1.6-1.9 1.8-3 0.2-0.7 1.3-1.5 3.3-2.4 2.9-1.5 6.4-2.2 10.4-2.2 1.6 0 2.5 0.4 2.5 1.1-5.9 3-11.2 6.9-15.8 11.8-3.7 3.6-6.9 7.2-9.4 10.7 0.4-0.1 0.8-0.2 1-0.2 1.9 0.1 4.1 4.1 6.7 12 2.1 6.4 3.1 10.7 3.1 13 0.1 1.9-0.3 2.6-1.3 2.6m-10.5-20.3c-1.2 0-3.3 0.3-6.5 0.8 0.1 1.5 0.2 3.3 0.3 5.5 1.3-0.2 2.7-0.5 4.2-1 0.6 0 1.1 1.1 1.6 3.3 0.3 1.6 0.4 2.5 0.4 3 0 0.7-0.6 1-1.8 1-1.3 0-2.7 0.1-4.3 0.3 0.1 1.7 0.1 3.4 0.1 5.2 6-1 9.1-2.1 9.1-3.1-0.2-10-1.2-15-3.1-15m-13.2 19.3c0.1-0.9 0.2-2 0.3-3.2v-2.4c-1.2 0.2-2.4 0.3-3.8 0.5-1.1 0.2-1.8 0.4-2.2 0.4-0.6-0.2-0.9-1-1-2.4 0.1-1.5 0.7-2.6 1.8-3.5 1.9-0.6 3.6-1 5.3-1.4 0.1-2.4 0.2-4.3 0.2-5.7-1.9 0.3-4 0.6-6.3 1-1.3 0.2-2.2 1.3-2.9 3.2-1.3 3.5-2 7.2-2 11.1 0 1.9 0.7 2.9 2.2 2.9 2.3 0.1 5.1-0.1 8.4-0.5m-5.2-31.2c-1 0-2.1-0.2-3.5-0.7-1-0.5-1.5-1-1.5-1.3 0-0.2 0.1-0.6 0.4-1.2 0.4-0.9 0.7-2.5 1-4.6 0.6-11.6 0.9-19.3 0.9-23.2 0-1.1 0-2.1-0.1-2.9-0.2-1.2-0.3-2.2-0.3-3 0.1-0.7 0.7-1 2-1 2.3 0 3.6 0.4 3.8 1 0 0.6-0.1 1.1-0.3 1.5 0 0.5-0.1 1.2-0.1 2l0.7 29.7c0 0.6 0.3 1.4 0.8 2.2 0 0.4-0.3 0.7-0.8 1s-1.6 0.5-3 0.5"/>
	
		
			<path class="st3" d="m187.8 543.9v23.2h-23.6"/>
			<path class="st3" d="m224.8 567.2h-23.2v-23"/>
			<path class="st3" d="m201.2 603.6v-23.2h23.6"/>
			<path class="st3" d="m164.3 580.3h23.2v23"/>
		
		<g transform="translate(-.59649)">
			<path class="st3" d="M47.8,567.2H24.5v-23"/>
			<path class="st3" d="m24.2 603.6v-23.2h23.6"/>
		</g>
		<g transform="translate(-88.5 92.616)">
			<path class="st3" d="m187.8 543.9v23.2h-23.6"/>
			<path class="st3" d="m224.8 567.2h-23.2v-23"/>
			<path class="st3" d="m201.2 603.6v-23.2h23.6"/>
			<path class="st3" d="m164.3 580.3h23.2v23"/>
		</g>
		<g transform="translate(446.61 92.616)">
			<path class="st3" d="m187.8 543.9v23.2h-23.6"/>
			<path class="st3" d="m224.8 567.2h-23.2v-23"/>
			<path class="st3" d="m201.2 603.6v-23.2h23.6"/>
			<path class="st3" d="m164.3 580.3h23.2v23"/>
		</g>
		<g transform="translate(179.34 .62834)">
			<path class="st3" d="m187.8 543.9v23.2h-23.6"/>
			<path class="st3" d="m224.8 567.2h-23.2v-23"/>
			<path class="st3" d="m201.2 603.6v-23.2h23.6"/>
			<path class="st3" d="m164.3 580.3h23.2v23"/>
		</g>
		<g transform="translate(357.25 .62834)">
			<path class="st3" d="m187.8 543.9v23.2h-23.6"/>
			<path class="st3" d="m224.8 567.2h-23.2v-23"/>
			<path class="st3" d="m201.2 603.6v-23.2h23.6"/>
			<path class="st3" d="m164.3 580.3h23.2v23"/>
		</g>
		<g transform="matrix(-1 0 0 -1 747.63 1147.7)">
			<path class="st3" d="M47.8,567.2H24.5v-23"/>
			<path class="st3" d="m24.2 603.6v-23.2h23.6"/>
		</g>
	
	<g transform="matrix(-1 0 0 -1 747.03 870.63)">
		
			<path class="st3" d="m187.8 543.9v23.2h-23.6"/>
			<path class="st3" d="m224.8 567.2h-23.2v-23"/>
			<path class="st3" d="m201.2 603.6v-23.2h23.6"/>
			<path class="st3" d="m164.3 580.3h23.2v23"/>
		
		<g transform="translate(-.59649)">
			<path class="st3" d="M47.8,567.2H24.5v-23"/>
			<path class="st3" d="m24.2 603.6v-23.2h23.6"/>
		</g>
		<g transform="translate(-88.5 92.616)">
			<path class="st3" d="m187.8 543.9v23.2h-23.6"/>
			<path class="st3" d="m224.8 567.2h-23.2v-23"/>
			<path class="st3" d="m201.2 603.6v-23.2h23.6"/>
			<path class="st3" d="m164.3 580.3h23.2v23"/>
		</g>
		<g transform="translate(446.61 92.616)">
			<path class="st3" d="m187.8 543.9v23.2h-23.6"/>
			<path class="st3" d="m224.8 567.2h-23.2v-23"/>
			<path class="st3" d="m201.2 603.6v-23.2h23.6"/>
			<path class="st3" d="m164.3 580.3h23.2v23"/>
		</g>
		<g transform="translate(179.34 .62834)">
			<path class="st3" d="m187.8 543.9v23.2h-23.6"/>
			<path class="st3" d="m224.8 567.2h-23.2v-23"/>
			<path class="st3" d="m201.2 603.6v-23.2h23.6"/>
			<path class="st3" d="m164.3 580.3h23.2v23"/>
		</g>
		<g transform="translate(357.25 .62834)">
			<path class="st3" d="m187.8 543.9v23.2h-23.6"/>
			<path class="st3" d="m224.8 567.2h-23.2v-23"/>
			<path class="st3" d="m201.2 603.6v-23.2h23.6"/>
			<path class="st3" d="m164.3 580.3h23.2v23"/>
		</g>
		<g transform="matrix(-1 0 0 -1 747.63 1147.7)">
			<path class="st3" d="M47.8,567.2H24.5v-23"/>
			<path class="st3" d="m24.2 603.6v-23.2h23.6"/>
		</g>
	</g>
	<path class="st3" d="m282.6 18.6 178.5 184.9"/>
	<path class="st3" d="M283.4,203.5L461.2,19"/>
	<path class="st3" d="M284.2,668L464,850.8"/>
	<path class="st3" d="m285.8 849.5 176.1-181.1"/>
	<path d="m-8 496.2c-0.5 0-1.2 0.1-2.3 0.2-0.2 0.5-0.4 1-0.7 1.6-0.4 0.9-0.6 1.3-0.7 1.3-0.2 0-0.3-0.3-0.4-0.8 0.1-0.7 0.2-1.3 0.3-1.9l-1.5 0.3c-0.3 0.1-0.7 0.1-1 0.2 0.1 0.6 0.2 1.3 0.4 2 0 0.2-0.3 0.3-0.8 0.4-0.3 0-0.6-0.7-1-1.9-1 0.3-2 0.8-2.9 1.4-0.2 0-0.4-0.3-0.7-1-0.3-0.9-0.5-1.5-0.5-1.6 0-0.3 0.2-0.6 0.6-0.7 0.8 0 1.8-0.2 3-0.5-0.3-1.7-0.4-3.3-0.4-5 0-0.4 0.2-0.6 0.5-0.6 0.2 0 0.5 0.1 1.1 0.4 0.4 0.3 0.7 0.5 0.7 0.8-0.2 1.3-0.3 2.3-0.3 3 0 0.3 0 0.6 0.1 1 1-0.2 2.1-0.4 3.3-0.7 0.4-2.1 0.9-4.1 1.3-5.9 0.1-0.7 0.3-1.1 0.6-1.1 1.3 0.8 2 1.5 2 2 0 0.1-0.1 0.2-0.2 0.4-0.2 0.4-0.7 1.5-1.4 3.3 0 0.2-0.1 0.5-0.3 0.9 0.4-0.1 0.7-0.2 1-0.3 0.5-0.2 0.9-0.4 1.2-0.4s0.6 1 1 2.9c0 0.4-0.2 0.7-0.5 0.7l-1.5-0.4m-11.4 5.5h0.5c1.4-0.6 2.4-1 3.1-1.1 0.5-0.2 0.8-0.3 0.8-0.3 0.2 0 0.5 0.2 0.9 0.7 0.3 0.5 0.5 0.9 0.5 1.3 0 0.1-0.1 0.3-0.2 0.5-0.2 0.3-0.5 1.4-0.9 3.3-0.1 0.5-0.2 0.8-0.3 0.9-0.2 0-0.3-0.1-0.6-0.2-0.2 0.1-0.3 0.1-0.5 0.2 0.1 0.1 0.3 0.2 0.5 0.4 0.4 0.4 0.5 0.6 0.5 0.7s-0.1 0.3-0.3 0.6c-0.5 0.7-0.9 1.4-1.3 1.9 0.2 0 0.3 0.1 0.4 0.2 0.1-0.3 0.2-0.5 0.5-0.7 0.9-0.2 1.8-0.4 2.6-0.6-0.1-0.1-0.2-0.1-0.3-0.2-0.3-0.3-0.4-0.7-0.4-1.1 0-0.3 0.2-0.9 0.5-1.7 0.2-0.5 0.4-0.8 0.5-0.9-0.1-0.4-0.2-0.8-0.3-1.4-0.3-1.5-0.4-2.6-0.4-3.1s0.1-0.8 0.3-0.8h0.5c1.4-0.7 2.5-1.1 3.2-1.2 0.5-0.2 0.8-0.3 0.8-0.3 0.3 0 0.6 0.2 1 0.7 0.3 0.5 0.5 1 0.5 1.3 0 0.1-0.1 0.3-0.2 0.5-0.2 0.3-0.5 1.7-1 4-0.1 0.6-0.2 0.9-0.4 1-0.1 0-0.3-0.1-0.5-0.4-1.4 0.4-2.2 0.7-2.3 0.9-0.2 0.2-0.3 0.2-0.3 0.2-0.1 0-0.1 0-0.2-0.1 0.1 0.5 0.3 0.9 0.5 1.2s0.4 0.6 0.4 1.1c2-0.5 3.1-0.7 3.3-0.8 0.3 0.1 0.4 0.5 0.4 1.3 0 0.4-0.2 0.7-0.5 0.8-0.7 0.1-1.6 0.3-2.5 0.7-0.2 0.1-0.3 0.1-0.5 0.2 0 0.4 0 1-0.1 1.8v0.1c1.6-0.4 2.5-0.7 2.6-0.7 0.3 0.1 0.4 0.6 0.4 1.5 0 0.4-0.2 0.7-0.7 0.8-0.6 0.1-1.3 0.3-2.1 0.6h-0.2c0 0.7-0.1 1.2-0.1 1.7 1.8-0.4 2.8-0.7 2.9-0.7 0.3 0.1 0.4 0.5 0.4 1.4 0 0.4-0.2 0.7-0.7 0.8-0.6 0.1-1.4 0.2-2.2 0.5-0.2 0-0.3 0.1-0.4 0.1v1.9h0.3c0.8-0.1 1.5-0.2 2.1-0.4 0.4-0.2 0.6-0.3 0.9-0.3 0.2 0 0.5 0.8 0.8 2.5 0 0.3-0.1 0.4-0.4 0.4h-1.2c-0.5 0-1.8 0.1-3.7 0.3-1.5 0.2-2.7 0.6-3.7 1.1v4.1c0 0.4-0.4 0.6-1.1 0.6-0.6 0-0.9-0.1-0.9-0.4 0.2-2.8 0.4-8.3 0.5-16.5-0.4 0.7-0.8 1.4-1 1.9-0.2 0.3-0.4 0.7-0.4 1.1 0 0.2-0.3 0.5-0.7 0.8-0.6 0.5-1.3 0.8-2.2 0.8-0.4 0-0.6-0.1-0.6-0.4 1.2-1.1 2.3-2.5 3.3-4.3 1.1-1.8 1.9-3.5 2.5-5.2-0.2 0.1-0.4 0.2-0.4 0.3-0.1 0.1-0.2 0.2-0.3 0.2-0.4 0-0.8-0.9-1.4-2.6-0.4-1.4-0.6-2.3-0.6-2.8-0.1-0.5-0.1-0.7 0.1-0.7m3.1 20.6c0.6-0.1 1.4-0.3 2.3-0.6 0.2 0 0.5-0.1 0.7-0.1v-1.9c-0.7 0.1-1.4 0.3-2.2 0.6-0.2 0-0.4-0.5-0.4-1.4 0-0.4 0.2-0.6 0.6-0.8 0.7-0.2 1.4-0.3 2.1-0.5v-1.6c-0.7 0.1-1.4 0.4-2.2 0.7-0.2 0-0.4-0.5-0.4-1.5 0-0.4 0.2-0.6 0.6-0.8 0.8-0.2 1.5-0.4 2.1-0.6v-2c-0.8 0.1-1.7 0.4-2.5 0.7-0.2 0-0.3-0.2-0.4-0.6 0 0.6 0 1.4-0.1 2.3-0.1 3.2-0.1 5.9-0.2 8.1m-1-16.5c0.2 0 0.6-0.2 1.2-0.6 0.1 0 0.2-0.2 0.3-0.5 0.1-0.5 0.1-1.1 0.1-1.6 0-0.7-0.1-1.1-0.3-1.1s-0.6 0.2-1 0.5c-0.5 0.3-0.8 0.7-0.8 1 0 1.5 0.2 2.3 0.5 2.3m5.6-1.3c0.2 0 0.7-0.1 1.6-0.4 0.1 0 0.3-0.2 0.4-0.5 0.1-0.6 0.2-1.3 0.2-1.9s-0.1-1-0.4-1c-0.2 0-0.6 0.1-1 0.4-0.6 0.4-0.9 0.7-0.9 1 0 1.6 0.1 2.4 0.1 2.4m6.2-7.5c0.2 0 0.5 0 0.7 0.1 0.2-0.1 0.5-0.2 0.8-0.3 2.1-1 3.8-1.5 4.9-1.5 0.5 0 1.2 0.3 2 0.8 0.6 0.4 0.9 0.9 0.9 1.2 0 0.4-0.1 0.9-0.3 1.7-0.2 1.2-0.6 6.5-1.1 15.9 0 0.1-0.3 0.2-1 0.2s-1-0.1-1-0.4v-1.3c-1 0.1-2.1 0.4-3.2 0.7 0.3 0.2 0.4 0.5 0.5 0.8 0 0.5-0.9 2.8-2.4 6.7-0.4 1-0.7 2.4-1 4.2-0.3 1-1 1.8-2.3 2.2-0.9 0.2-1.7 0.4-2.3 0.4-0.3 0-0.5-0.1-0.5-0.4 2.3-2.2 3.9-4.8 5-7.8 0.8-2.1 1.2-3.9 1.3-5.3-0.1 0.1-0.2 0.1-0.3 0.2-0.3 0.3-0.5 0.5-0.7 0.5s-0.3-0.2-0.6-0.7c-0.2-0.3-0.2-0.7-0.2-1.2v-6.8c0.1-2.4 0.1-4.9 0.1-7.6 0-0.3 0-0.6-0.1-1 0-0.3-0.1-0.5-0.1-0.6 0.2-0.4 0.4-0.7 0.9-0.7m6.1 13.7c0.1-3.9 0.2-7.5 0.2-10.9 0-1.5-0.4-2.3-1-2.3-1 0-2.2 0.6-3.7 1.9 0 0.7-0.1 1.5-0.2 2.4 0.8-0.2 2.1-0.5 3.8-1 0.2 0 0.2 0.5 0.2 1.4 0 0.3-0.2 0.5-0.5 0.7-0.9 0.5-1.6 0.9-2.2 1.1-0.4 0.1-0.9 0.4-1.5 0.8 0 0.8 0 1.6-0.1 2.3 0.8-0.2 2.1-0.7 4-1.4 0.2 0 0.2 0.5 0.2 1.6 0 0.2-0.2 0.4-0.5 0.6-0.9 0.6-1.6 1-2.2 1.2-0.4 0.1-1 0.4-1.7 0.9v0.9c0 0.7 0.1 1.1 0.3 1.1s0.7-0.1 1.4-0.3c1.8-0.7 2.9-1 3.5-1m-1.3 4.1c0.6 0 1 0.2 1.2 0.6 0 0.3-0.2 1.2-0.5 2.8-0.2 1.4-0.3 2.5-0.3 3.4 0 1.4 0.1 2.4 0.4 3 0.4 0.6 1 1 1.8 1 1.5 0 2.5-0.4 3.1-1.2 0.4-0.7 0.6-1.7 0.6-3.3l-0.2-5c0-0.3 0-0.4 0.1-0.4 0.2 0 0.6 0.9 1.1 2.8 0.6 2.7 0.9 4.8 1 6.4 0.1 0.8 0.1 1.5 0.1 1.9 0.1 0.3 0.1 0.5 0.1 0.7 0 0.4-0.2 0.6-0.5 0.6-0.8 0.2-1.7 0.4-2.8 0.7-0.7 0.2-1.4 0.3-2.2 0.3-1.2 0-2.2-0.7-3.1-2-0.8-1.3-1.1-3.1-1.1-5.6 0-1.9 0.1-3.8 0.4-5.7 0-0.7 0.3-1 0.8-1m-10.4 36.7c0.2 0.1 0.4 0.6 0.4 1.4 0 0.9-0.3 1.6-0.8 2.3-0.9 0.6-1.7 1.2-2.6 1.6v1.6c1 0.2 2.1 0.9 3.4 1.9 0.3 0.3 0.5 0.8 0.5 1.4-0.2 2.3-0.5 3.4-0.9 3.4-0.2-0.1-0.5-0.4-0.9-1.1-0.5-1-1.2-2-2.2-3.1v1.2c0 9.5 0.1 15.9 0.4 19.2 0 0.8-0.2 1.2-0.7 1.2-0.1 0-0.4-0.2-1.1-0.7-0.6-0.3-0.9-0.8-0.9-1.5 0-0.2 0.1-1 0.3-2.3 0-1.5 0-6.3 0.1-14.4l-4.3 7c-0.9 1.5-1.6 2.3-1.9 2.3-0.2 0-0.4-0.1-0.8-0.4-0.2-0.2-0.3-0.4-0.3-0.7 0-0.4 0.2-0.7 0.5-1.1 1.2-1.4 2.4-3.4 3.6-6.1 1.1-2.3 2-4.6 2.7-6.9-1.1 0.4-2.3 1.1-3.7 2.1-0.3 0-0.6-0.8-0.8-2.5-0.2-1.2-0.3-1.9-0.3-2.2 0-0.6 0.3-0.9 0.8-0.9 1.1-0.1 2.6-0.4 4.4-0.9v-9.3l-0.2-3.5c0-0.6 0.3-1 0.6-1.3 0.3 0.1 0.9 0.4 1.7 1.1 0.7 0.6 1.1 1.2 1.1 1.6 0 0.2-0.1 0.5-0.3 0.8-0.2 0.4-0.4 1.2-0.6 2.4-0.1 1.6-0.2 4.1-0.3 7.5 0.6-0.2 1.1-0.5 1.7-0.7 0.8-0.2 1.2-0.4 1.4-0.4m14.2-2.5c0.3 0 0.4 0.8 0.4 2.3 0 0.3-0.3 0.5-0.8 0.8-0.7 0.3-1.4 0.5-2 0.8-0.3 6.7-0.4 11.3-0.5 13.8 1.6-0.2 3-0.4 4.4-0.6 0.4-0.2 0.9-0.2 1.4-0.2 0.1 0.6 0.3 1.2 0.5 1.7 0.3 0.9 0.5 1.8 0.5 2.5-0.1 0.5-0.2 0.8-0.4 0.9-0.1 0-0.5-0.2-1.2-0.6-0.8-0.5-1.4-0.7-2-0.7-2.2 0-5.2 0.2-9 0.7-3.3 0.4-5.8 0.9-7.5 1.5-0.3 0-0.6-1.1-0.9-3.2l0.5-0.4h0.9c1.6-0.2 3.1-0.4 4.5-0.6 0-5.2-0.1-9.4-0.2-12.7-0.4 0.1-0.8 0.3-1.2 0.4-0.2 0-0.5-0.4-0.7-1.2-0.2-0.6-0.2-1.2-0.2-1.7 0-0.4 0.2-0.6 0.6-0.6 0.3 0 0.8-0.1 1.5-0.2-0.1-1.7-0.2-3-0.3-3.9-0.1-1-0.2-1.8-0.3-2.5 0-0.4 0.5-0.6 1.6-0.6 0.8 0 1.2 0.3 1.2 1v5.5c1.2-0.3 2.6-0.6 4.3-1 0-2.7 0.1-5.7 0.1-9 0-0.5 0.3-0.8 1-0.8 1.4 0 2.1 0.4 2.1 1.2-0.3 1.1-0.4 2.6-0.5 4.6-0.1 1.2-0.1 2.3-0.2 3.4 0.9-0.3 1.6-0.4 2.4-0.6m-8.9 18.3c1.3-0.1 2.6-0.3 3.8-0.5 0.1-3 0.2-7.5 0.3-13.4-0.8 0.2-1.4 0.3-2 0.4-0.7 0.1-1.4 0.2-2.2 0.4v2.5c0.7-0.1 1.8-0.4 3.1-0.7 0.2 0 0.3 0.7 0.3 2.1 0 0.2-0.2 0.4-0.7 0.6-0.7 0.4-1.3 0.6-1.8 0.7-0.3 0.1-0.6 0.2-1 0.3v2.1c0.7-0.2 1.7-0.5 3.1-0.9 0.2 0 0.3 0.7 0.3 2 0 0.2-0.2 0.5-0.7 0.7-0.7 0.3-1.3 0.6-1.7 0.7-0.3 0-0.6 0.1-1 0.3 0.2 1 0.2 1.9 0.2 2.7m-0.4 4.2c0.3 0 0.5 0.1 0.5 0.4-0.8 2.2-1.3 3.6-1.5 4.4s-0.4 1.6-0.6 2.2-0.3 1.2-0.4 1.8c-0.1 0.5-0.2 0.8-0.4 0.8-0.4 0-0.8-0.5-1.3-1.6-0.7-1.2-1-2-1-2.5 0-0.2 0.2-0.5 0.5-0.7 0.4-0.3 0.8-0.8 1.1-1.3 0.5-0.7 1.5-1.9 3.1-3.5m4.5-0.2c0.2 0 1.3 0.6 3.1 1.9 0.6 0.5 1.1 0.8 1.5 1 0.2 0.3 0.4 1.6 0.4 3.7 0 0.6-0.1 1.3-0.4 2.2-0.2 0.7-0.4 1.1-0.6 1.1s-0.4-0.3-0.5-0.8c-1-2.8-2-5.2-3.2-7.3-0.4-0.5-0.5-0.9-0.6-1.2 0-0.4 0.1-0.6 0.3-0.6m0.4 30.3c-1 0-2.2 0.1-3.5 0.2-0.1 0.2-0.2 0.4-0.3 0.7-0.5 0.9-0.8 2.2-1 4-0.6 10.1-1 16.8-1 20.2 0 0.9 0 1.7 0.1 2.5 0.1 1 0.2 1.8 0.2 2.5-0.1 0.5-0.5 0.8-1.2 0.8-1.2 0-1.9-0.4-2-1.2 0-0.4 0-0.8 0.1-1v-1.5-18.9l-7.2 10.7c-1.5 2.2-2.6 3.3-3.2 3.3-0.3 0-0.7-0.3-1.3-0.8-0.4-0.4-0.5-0.8-0.5-1.3s0.3-1 1-1.6c2-1.9 4.1-4.6 6.3-8.3 1.9-3.1 3.4-6.3 4.5-9.4-3.2 0.6-5.5 1.4-7.2 2.3-0.4 0-0.8-1.6-1.3-4.9l0.8-0.2h1.3c6.9-1.4 12.7-2.6 17.4-3.5 0.4-0.3 0.9-0.4 1.5-0.4 0.2 0.9 0.5 1.7 0.8 2.6 0.5 1.3 0.7 2.5 0.8 3.6-0.1 0.8-0.3 1.2-0.5 1.3-0.2 0-0.7-0.3-1.7-0.8-1-0.6-2-0.9-2.9-0.9m-3.8 8.8c1.6 1 3 1.7 4.4 2.4s3 1.9 4.8 3.6c0.2 0.5 0.3 1.1 0.3 1.6-0.3 3.9-0.9 5.8-1.6 5.8-0.2 0-0.5-0.3-0.6-1-1-2.3-3.5-6.3-7.5-11.9-0.1-0.4 0-0.5 0.2-0.5m-10.4 35.2c0.3 0.2 0.6 0.8 0.8 1.7 0.3 0.9 0.8 1.7 1.4 2.6 0.6 1 0.9 2.1 0.9 3.1-0.1 0.8-0.4 1.3-0.9 1.3-0.9-0.5-1.7-0.8-2.4-1s-1.1-1.1-1.1-2.7c0-1.5 0.2-2.8 0.5-3.8 0.2-0.7 0.5-1.1 0.8-1.2m4.9 9.9c0.2 0 0.4 0.7 0.4 2 0 0.3-0.2 0.6-0.6 0.8-2.2 1.1-4.1 1.7-5.6 2-1.3 0.2-2.9 0.8-4.8 1.7-0.3 0-0.6-0.4-0.8-1.3-0.2-0.7-0.2-1.4-0.2-2 0-0.4 0.2-0.6 0.5-0.6 1-0.1 4.8-1 11.1-2.6m-1.6 5.9c0.3 0.1 0.5 0.7 0.5 1.8 0 0.6-0.3 0.9-0.8 1.1-0.6 0.1-1.4 0.3-2.2 0.7-0.7 0.3-1.3 0.5-1.9 0.6-0.8 0.2-1.6 0.5-2.5 1-0.3 0-0.5-0.6-0.5-1.8 0-0.6 0.2-1 0.6-1.3 4.4-1.4 6.6-2.1 6.8-2.1m-0.1 5.3c0.3 0.1 0.5 0.6 0.5 1.6 0 0.5-0.3 0.9-0.8 1.1-0.6 0.1-1.3 0.3-2.1 0.6-0.7 0.2-1.3 0.4-1.8 0.5-0.8 0.2-1.6 0.4-2.4 0.8-0.3 0-0.5-0.5-0.5-1.6 0-0.5 0.2-0.8 0.5-1 4.2-1.3 6.4-1.9 6.6-2m-7.5 7 0.8 0.2c2.2-0.9 3.9-1.4 5.1-1.5 0.8-0.2 1.3-0.4 1.3-0.4 0.4 0 0.9 0.4 1.4 1.1 0.5 0.6 0.7 1.2 0.7 1.7 0 0.2-0.1 0.5-0.3 0.8-0.3 0.5-0.7 2.3-1.4 5.4-0.2 0.9-0.3 1.3-0.5 1.4-0.3 0-0.6-0.2-0.9-0.6-2 0.6-3.2 1.1-3.5 1.5-0.2 0.2-0.4 0.3-0.5 0.3-0.5-0.1-1.1-1.5-1.8-4.4-0.6-2.3-0.9-3.9-0.9-4.7 0.1-0.5 0.2-0.8 0.5-0.8m2.8 6.3c0.4 0 1.2-0.3 2.7-0.9 0.1 0 0.3-0.3 0.4-0.7 0.1-0.8 0.2-1.6 0.2-2.5 0-1-0.1-1.5-0.4-1.5-0.5 0-1.1 0.2-1.9 0.6-1 0.5-1.5 0.9-1.5 1.3-0.1 2.5 0.1 3.7 0.5 3.7m18.9-32c0.2 0.1 0.4 0.7 0.4 1.7 0 0.9-0.3 1.6-0.8 2.3-1.2 0.4-2.3 0.8-3.4 1-0.1 1-0.3 2.5-0.6 4.6 2-0.5 3.2-0.8 3.4-0.8 0.3 0 0.9 0.3 1.7 0.8s1.1 1 1.1 1.5c0 0.2-0.1 0.6-0.4 1.2-0.4 1.2-0.8 3.3-1.5 6.1 1-0.2 1.9-0.4 2.7-0.7 0.7-0.3 1.3-0.4 1.7-0.4s0.8 1.3 1.3 3.9c0 0.4-0.3 0.6-0.7 0.6l-1.7-0.1c-1.2 0-3.7 0.2-7.7 0.6-3 0.4-5.6 1.1-7.8 2-0.2 0-0.5-0.4-0.8-1.1-0.4-1.1-0.6-1.7-0.6-1.9 0-0.3 0.2-0.5 0.6-0.6 1.1 0 2.4-0.2 4-0.6 0-0.1 0.1-0.2 0.1-0.4 0.4-1.1 0.7-3.2 1.2-6.3-0.1 0-0.1 0.1-0.2 0.1-1.6 1-2.6 1.4-3 1.4-0.2 0-0.4-0.5-0.4-1.5 0.1-1.5 0.3-2.3 0.8-2.5 0.7 0 1.7-0.2 3.2-0.6 0.3-2.1 0.4-3.7 0.4-4.7-1 0.2-2.1 0.6-3.3 1-0.3 0-0.5-0.7-0.6-1.9-0.1-0.9-0.2-1.5-0.2-1.7 0-0.6 0.2-0.9 0.7-0.9 2.1-0.1 5.1-0.6 9-1.6 0.8-0.2 1.3-0.4 1.4-0.5m-5.9 19.3c1-0.2 2.1-0.3 3.2-0.5 0.5-2.8 0.8-4.7 0.8-5.6s-0.2-1.4-0.6-1.4l-2.1 0.6c-0.5 2.6-0.9 4.9-1.3 6.9m3.2 5.1c1.3 0 2.5 0.5 3.5 1.5 0.8 0.7 1.2 1.4 1.2 1.8 0 0.7-0.2 1.3-0.5 1.8-1 1.7-1.7 4.1-2.1 7.2-0.1 0.5-0.3 0.8-0.5 0.8s-0.5-0.2-1.2-0.6c-0.6-0.3-1.3-0.4-2-0.4-0.6 0-1.6 0.2-2.7 0.5-0.6 0.3-1 0.5-1.4 0.5-0.3 0-0.5-0.3-0.6-0.8-0.3-1.3-0.6-2.6-1-3.7-0.5-1.4-0.9-2.7-1.1-3.7-0.2-0.7-0.3-1.3-0.3-1.7 0-0.5 0.4-1 1.2-1.3 3.3-1.3 5.8-1.9 7.5-1.9m-4.4 9.3c1.2 0 2.4-0.3 3.7-1 0.4-0.2 0.8-0.7 1-1.6 0.2-1 0.4-1.9 0.4-2.7 0-1-0.4-1.5-1.1-1.5-1.2 0-2.6 0.4-4.1 1.2-0.4 0.3-0.6 0.7-0.6 1.3 0 0.5 0.1 1.6 0.3 3.2-0.1 0.7 0.1 1.1 0.4 1.1m3.3 22.5c-0.9 0-2.7 0.2-5.3 0.5-0.3 1.4-0.7 2.5-1.2 3.4 1.5-0.3 2.8-0.5 3.8-0.5 0.6 0 1.3 0.3 2.3 0.9 0.7 0.5 1 1 1 1.4s-0.1 0.9-0.2 1.7c-0.2 1.2-0.4 6.2-0.8 14.9 1.9-0.3 3.8-0.6 5.5-0.9 0.6-0.3 1.2-0.4 1.9-0.4l0.6 2.1c0.4 1.1 0.7 2.1 0.7 3-0.1 0.6-0.2 0.9-0.4 1-0.2 0-0.6-0.2-1.4-0.6-0.9-0.5-1.7-0.8-2.4-0.8-2.9 0-6.7 0.3-11.4 0.9 0 0.3-0.2 0.7-0.4 1.3-0.4 1.3-1 2.5-1.7 3.7-0.4 0.6-0.6 1.4-0.7 2.4-0.2 0.9-0.7 1.5-1.6 1.7-1.6 0.7-2.9 1.1-4.1 1.1-0.9 0-1.3-0.2-1.3-0.7 0-0.2 0.3-0.5 0.9-0.9 2.3-1.6 3.9-3.1 4.7-4.5 0.6-1.1 1.1-2.4 1.4-3.7-3.5 0.6-6.2 1.3-8.1 2.1-0.3 0-0.7-1.3-1.1-3.8l0.7-0.3h1.1c2-0.3 3.9-0.6 5.7-0.9v-0.3c0-7.6-0.3-13.5-0.8-17.6 0.1-1.1 0.2-1.6 0.5-1.6 0.2 0 0.6 0.2 1.1 0.6 0.2-0.2 0.6-0.3 1-0.4 0.5-0.1 1.1-0.3 1.6-0.4 0.1-0.3 0.1-0.7 0.2-1.1 0.2-0.7 0.4-1.5 0.6-2.4-2.2 0.5-4.1 1.2-5.7 2.1-0.3 0-0.6-0.4-1-1.2-0.4-1.3-0.7-2-0.7-2.2 0-0.4 0.2-0.7 0.7-0.9 1.3 0 2.9-0.3 5-0.9 0.7-0.1 1.4-0.2 2.1-0.4 0.2-1.5 0.4-3.3 0.6-5.3 0.1-0.6 0.3-1 0.7-1 0.3 0 0.9 0.2 1.6 0.7 0.7 0.6 1.1 1 1.1 1.4 0 0.3-0.1 0.6-0.3 0.8-0.2 0.6-0.5 1.5-0.8 2.8 0.1 0 0.2-0.1 0.4-0.1 1.4-0.1 2.7-0.3 3.7-0.7 0.6-0.3 1.2-0.4 1.5-0.4 0.4 0 0.8 1.3 1.3 3.9 0 0.4-0.3 0.6-0.7 0.6l-1.9-0.1m-9.6 23.9c2.4-0.4 4.7-0.8 6.8-1.1-0.1-5.2-0.1-10-0.1-14.3 0-1.6-0.4-2.5-1.1-2.5-1.5 0-3.5 0.7-5.9 2.1v0.4 1.2c3.3-0.8 5-1.3 5.1-1.3 0.4 0.1 0.5 0.7 0.5 1.8 0 0.5-0.3 0.9-0.8 1s-1.1 0.2-1.8 0.5c-0.5 0.2-1.1 0.3-1.6 0.4-0.4 0.1-0.9 0.2-1.4 0.4v1.8c3.4-0.8 5.1-1.1 5.3-1.1 0.3 0.1 0.5 0.7 0.5 1.8 0 0.5-0.3 0.8-0.8 1-0.6 0.1-1.2 0.2-1.9 0.5-0.6 0.2-1.2 0.3-1.7 0.4-0.4 0.1-0.9 0.2-1.4 0.4v1.8c3.4-0.8 5.2-1.1 5.4-1.2 0.3 0.1 0.5 0.7 0.5 1.9 0 0.5-0.3 0.8-0.8 1-0.6 0.1-1.2 0.3-1.9 0.5-0.6 0.2-1.1 0.3-1.6 0.4s-1 0.2-1.5 0.4c0.1 0.8 0.2 1.4 0.2 1.8m6 3.5c0.6 0.2 1.7 0.6 3.1 1.4 1.4 0.7 2.5 1.8 3.5 3.3 0.1 0.3 0.1 0.6 0.1 1-0.3 2.7-0.9 4.1-1.7 4.1-0.4 0-0.7-0.4-1-1.2-1.1-2.7-2.4-5.2-4.1-7.4-0.2-0.3-0.4-0.6-0.4-0.8 0-0.3 0.1-0.4 0.5-0.4m3.6 20.7c0.3 0 0.9 0.3 1.7 0.8s1.2 1.1 1.2 1.6c0 0.4-0.2 1-0.5 1.8-0.2 0.7-0.4 1.5-0.7 2.6l3.3-0.6c0.6-0.3 1.2-0.5 1.9-0.5 0.2 0.7 0.3 1.3 0.6 2 0.4 1 0.6 2 0.6 2.9-0.1 0.5-0.2 0.7-0.4 0.8-0.1 0-0.5-0.2-1.3-0.6s-1.6-0.6-2.3-0.6c-1 0-2 0-3.1 0.1-0.3 1.3-0.6 2.7-0.9 4.2h0.1c0.3 0 0.4 0.8 0.4 2.5 0 0.4-0.3 0.7-0.8 1-2.7 0.8-5 1.4-6.9 1.6-0.4 0.1-0.8 0.1-1.3 0.2-0.5 1.7-1.2 3.4-1.9 5.3 3.8-1.3 6.6-1.9 8.5-1.9 1.4 0 2.6 0.5 3.7 1.5 0.8 0.8 1.2 1.5 1.2 2 0 0.7-0.2 1.4-0.5 1.9-1.1 1.7-1.8 4.2-2.2 7.4-0.1 0.7-0.3 1.1-0.5 1.1s-0.6-0.2-1.2-0.6c-0.7-0.3-1.4-0.5-2.1-0.5-0.9 0-2.2 0.2-3.9 0.7-0.8 0.4-1.5 0.6-2 0.6-0.2 0-0.4-0.3-0.6-0.8-0.3-1.4-0.6-2.7-1.1-3.9-0.4-1.2-0.7-2.2-0.9-3.2-1 0.8-2 1.6-3.2 2.2-1.6 1.3-3.3 1.9-5.1 1.9-0.2 0-0.3-0.1-0.3-0.2 0-0.6 1.1-1.9 3.3-3.9 2.9-2.9 5-6 6.3-9.2-0.7 0.2-1.5 0.4-2.3 0.6-0.3 0-0.6-0.4-0.8-1.2-0.2-0.7-0.3-1.3-0.3-1.8 0-0.4 0.2-0.6 0.6-0.6 0.6-0.1 2-0.3 4.1-0.7 0.5-1.7 0.8-3.3 1-4.8-4.3 0.9-7.6 2-9.8 3.4-0.3 0-0.7-1.4-1-4.3l0.8-0.2h1.1c3.3-0.7 6.4-1.3 9.3-1.9v-1.2c0-0.8-0.2-1.6-0.5-2.5l-0.1-0.4c-0.2 0.1-0.3 0.1-0.5 0.1-2.3 1-3.6 1.5-4.1 1.5-0.3 0-0.4-0.5-0.4-1.5 0.1-1.6 0.4-2.5 1-2.6 1.3 0 3.9-0.5 7.9-1.5 2.9-0.3 4.6-0.6 4.9-0.6m-7.2 16.1c1.3-0.3 2.7-0.6 4.4-0.9 0.3-1.7 0.6-3.2 0.9-4.5-1.4 0.2-2.8 0.4-4.3 0.7-0.3 1.4-0.6 2.9-1 4.7m1.9-12.3c0.4 0.3 0.7 0.6 0.7 0.9s-0.2 0.8-0.5 1.6c-0.2 0.4-0.4 1.1-0.6 2.1 1.5-0.3 3-0.6 4.3-0.9 0.2-1.2 0.2-2.1 0.2-2.8 0-1.1-0.3-1.6-0.8-1.6-1.1 0.2-2.3 0.4-3.3 0.7m-2.4 29.4c1.7 0 3.5-0.4 5.3-1.2 0.5-0.2 0.8-0.8 1.1-1.6 0.3-1.1 0.4-2 0.4-2.9 0-1.1-0.4-1.6-1.2-1.6-1.6 0-3.4 0.5-5.6 1.4-0.6 0.4-0.8 1-0.8 1.6 0 0.5 0.1 1.6 0.3 3.2 0 0.7 0.2 1.1 0.5 1.1m5.4 19.8c0.7 0 1.8 0.7 3.3 2.2 0.9 1 1.4 1.9 1.4 2.7 0 0.4-0.3 0.9-0.9 1.6-1.4 1-3.5 3-6.2 5.8 0.4 1 0.7 1.9 0.9 2.8 3.3-0.7 6.2-1.3 8.9-1.9 0.6-0.3 1.2-0.5 1.9-0.5 0.2 0.8 0.4 1.6 0.7 2.4 0.4 1.2 0.7 2.3 0.8 3.4-0.1 0.6-0.3 0.9-0.5 1-0.2 0-0.7-0.3-1.6-0.8-1-0.6-1.8-0.9-2.6-0.9-2 0-4.3 0.2-7.2 0.7 0.1 1.3 0.1 2.8 0.1 4.5 0 3.6-0.1 6.6-0.3 9.3-0.2 2.4-0.3 4.2-0.5 5.3-0.1 0.7-0.2 1.5-0.3 2.2-0.1 0.8-0.2 1.2-0.3 1.2-0.4 0-0.7-0.1-1-0.3-0.4-0.2-1-0.4-1.7-0.5-1.2-0.2-2.4-1.1-3.6-2.6-1.8-2.4-2.7-3.9-2.7-4.6 0-0.2 0.1-0.4 0.4-0.4 0.4 0 1 0.4 1.7 1.3 1.8 1.2 3.1 1.7 3.9 1.7 0.4 0 0.7-0.9 1-2.8 0.4-1.8 0.6-5.1 0.6-9.9 0-1.5-0.1-2.8-0.2-4-0.6 0.1-1.2 0.2-1.9 0.3-4.3 0.9-7.6 2-9.8 3.3-0.3 0-0.7-1.4-1-4.3l0.8-0.3h1.1c3.7-0.8 7.1-1.5 10.3-2.3-0.6-1.8-1.2-2.9-2-3.2-0.4-0.2-0.6-0.5-0.6-0.8s0.3-0.8 0.9-1.3 1.2-0.7 1.9-0.7c0.3 0 0.6 0.3 0.9 0.8 0.1 0.1 0.2 0.3 0.2 0.4 2-4 3.1-6.3 3.1-7.2 0-1-0.4-1.5-1.2-1.5-0.7 0.1-1.9 0.9-3.5 2.1-1.8 1.4-3.2 2.6-4.2 3.8-0.3 0.4-0.6 0.6-0.9 0.6s-0.8-0.9-1.3-2.7c-0.6-1.3-0.8-2-0.8-2.4s0.3-0.5 0.8-0.6c1-0.1 2.8-0.7 5.4-1.7 2.6-0.7 4.6-1.2 5.8-1.2"/>
	<path d="m755 498.5c0.4 0 0.6 1 0.6 2.9 0 0.5-0.4 0.9-1.1 1.3-0.8 0.4-1.6 0.8-2.3 1 0 1.6-0.1 2.8-0.1 3.7 1.3-0.4 2.7-1 4.1-1.5 0.3 0 0.5 0.8 0.5 2.5 0 0.4-0.3 0.7-0.8 1-1.4 0.7-2.6 1.2-3.8 1.6v3.6c0.7-0.2 1.8-0.5 3.3-0.9 0.4 0 0.5 0.8 0.5 2.4 0 0.4-0.3 0.7-0.8 1.1-0.7 0.4-1.3 0.7-1.9 0.9-0.4 0.1-0.8 0.3-1.3 0.6 0 0.9-0.1 1.9-0.1 2.8 0.6 0.3 1.4 0.5 2.5 0.8 1.6 0.5 3.8 1.9 6.6 4 1.4 1.1 2.7 1.8 4 2 0.7 0.2 2.1 0.7 4.1 1.5 1.2 0.5 2.3 1.2 3.2 2 0 1-1.8 1.5-5.3 1.5-2.2-0.4-4-0.7-5.2-0.7-0.8 0-1.2-0.4-1.3-1.1-0.1-1.4-0.6-2.4-1.6-3.1s-2-1.3-3.2-1.8c-1-0.3-3.3-1.4-6.8-3.3-1-0.5-1.7-0.7-2.2-0.7-0.1 0-0.1-0.1-0.2-0.2 0 0.1 0 0.1-0.1 0.2-0.3 0.9-0.5 1.9-0.6 3.2-0.1 1.2-0.6 1.9-1.3 2.4-1.3 0.9-2.5 1.3-3.5 1.3-0.7 0-1-0.1-1-0.4s0.2-0.7 0.7-1.2c2-2.2 3.3-4.2 4-6 0.7-1.9 1.1-4.1 1.4-6.6 0-0.7 0.1-1 0.3-1 1.2 0 1.9 0.4 1.9 1.1 0 0.4-0.1 1.1-0.3 2.1v0.3c0.2 0.2 0.5 0.4 0.7 0.7 0.3 0.5 0.7 0.9 1.2 1.4v-8.2c-0.3 0.1-0.6 0.2-0.8 0.2-1.6 0.4-3.7 1.1-6.1 2.2-0.3 0-0.6-0.4-0.8-1.2-0.2-0.7-0.2-1.3-0.2-1.8 0-0.4 0.2-0.6 0.5-0.6 1-0.1 3.5-0.9 7.5-2.4v-3.8c-0.8 0.2-1.8 0.6-2.9 1.2-0.4 0-0.7-0.5-0.9-1.4-0.2-0.8-0.3-1.5-0.3-2.2 0-0.6 0.2-0.9 0.6-0.9 0.5-0.1 1.7-0.4 3.5-0.9v-9.5c0-0.6 0.3-0.9 0.9-0.9 1.4 0 2.2 0.4 2.2 1.3-0.2 0.7-0.3 1.7-0.3 3.1-0.1 1.9-0.2 3.6-0.2 5.1 0.7-0.1 1.6-0.4 2.5-0.7m7.9 1.6c0.5 0 1.2 0.4 2.3 1.2 1.2 0.9 1.7 1.6 1.7 2 0 0.1-0.2 0.4-0.5 0.8-0.4 0.6-1 2-1.8 4.1 0.2 0.4 0.2 1 0.2 1.7 0 0.6-0.3 1.1-1 1.3-0.5 0.1-1.1 0.2-1.7 0.5-0.5 0.2-1 0.3-1.5 0.4s-1 0.3-1.5 0.5c-0.1 1.6-0.2 2.9-0.2 3.9s0.2 1.8 0.5 2.3c0.4 0.5 1.5 0.8 3.2 0.8 1.5 0 2.4-0.2 2.7-0.8 0.4-0.6 0.7-2.4 0.7-5.6 0-0.3 0-0.4 0.1-0.4 0.2 0 0.5 0.4 0.9 1.3 0.8 2.1 1.3 4.2 1.3 6.1 0 0.7 0 1.2 0.1 1.5 0.1 0.2 0.1 0.4 0.1 0.5 0 0.3-0.2 0.4-0.5 0.4s-0.7 0.1-1 0.2c-0.4 0.1-1.9 0.1-4.5 0.1-2 0-3.1-0.1-3.3-0.4-0.2-0.2-0.4-0.4-0.6-0.5-0.3-0.1-0.7-0.8-1.2-1.8-0.6-1.3-0.9-2.6-0.9-3.8s0.2-4.3 0.7-9.2c0.1-1.2 0.2-2.2 0.2-3.3 0-0.4 0-0.9-0.1-1.4-0.1-0.3-0.2-0.6-0.2-0.9s0.1-0.5 0.4-0.8c0.2-0.3 0.7-0.5 1.5-0.5 0.3 0 0.6 0 0.9 0.2 0.4-0.1 0.8-0.3 1.4-0.4 0.6 0.1 1.2 0 1.6 0m-2.9 3.9c-0.2 1.8-0.4 3.4-0.6 4.9 0.8-0.2 1.6-0.4 2.2-0.5 0.8-2.6 1.2-3.9 1.2-4.1 0-0.9-0.3-1.3-0.8-1.3-0.7 0.1-1.4 0.4-2 1m1.6 38.1c0.5 0 1 1.3 1.3 3.7 0 0.3-0.2 0.5-0.6 0.6-1.4 0-3.3 0.5-5.7 1.4-0.6 0.2-1.1 0.7-1.6 1.6h0.3c1 0 1.7 0.3 2.2 0.8 0.3 0.4 0.5 1 0.5 1.9v2.6c1.6-0.4 3.3-1 5.2-1.6 0.3 0 0.5 1 0.5 3.1 0 0.4-0.3 0.7-0.9 1-1.8 0.8-3.4 1.4-4.8 1.8v5c3.2-0.6 6.1-1.2 8.7-1.7 0.5-0.3 1.1-0.5 1.8-0.5 0.2 0.8 0.4 1.6 0.7 2.4 0.4 1.2 0.7 2.3 0.8 3.4-0.1 0.6-0.3 0.9-0.6 1-0.1 0-0.6-0.2-1.5-0.7-1-0.6-1.9-0.9-2.6-0.9-2 0-4.4 0.2-7.3 0.8v11.7c0 2.1-0.1 3.8-0.2 5.3-0.2 1.3-0.5 1.9-0.8 1.9-0.2 0-0.6-0.3-1.3-0.8-0.7-0.7-1.4-1.2-2.1-1.5-0.6-0.3-1.6-1.3-3-3.1-0.9-1-1.4-1.6-1.4-1.9 0-0.4 0.2-0.6 0.5-0.6 2 1.1 3.5 1.6 4.6 1.6 0.7 0 1-1 1-2.9v-9.2c-0.5 0.1-0.9 0.1-1.4 0.2-4.2 0.9-7.4 2.1-9.5 3.5-0.4 0-0.9-1.6-1.3-5l0.9-0.4h1.2c3.6-0.7 7-1.4 10.1-2v-4.9c-1.4 0.3-3.2 1-5.2 1.8-0.4 0-0.7-0.5-0.9-1.5-0.2-0.8-0.3-1.5-0.3-2.2 0-0.5 0.2-0.8 0.6-0.8 0.8-0.1 2.7-0.6 5.7-1.5v-0.9c0-1.3-0.2-2.4-0.6-3.2-0.2-0.2-0.3-0.3-0.4-0.5-0.6 0.7-1.4 1.2-2.5 1.3-1.9 0.5-3.2 0.8-4 0.8-0.4 0-0.6-0.2-0.6-0.6 2.1-2.5 4.2-4.5 6.3-6.2 1.7-1.4 3.4-2.3 5-2.6 1.2 0 2.2-0.6 3.2-1.5m-7.3 51.6c0.2 0 0.7 0.4 1.5 1.2 0.7 0.8 1 1.4 1 1.7 0 0.2-0.2 0.5-0.5 0.8-1.1 1.6-2.4 4-3.9 7.2l-0.1 0.1c1.4-0.3 5-1.4 10.6-3.3 0.4 0 0.5 0.9 0.5 2.7 0 0.4-0.3 0.8-1 1.1-2.1 1.1-3.9 1.8-5.3 2.1-1.2 0.3-2.8 0.9-4.5 1.8-0.4 0-0.7-0.5-0.9-1.5-0.1-0.3-0.2-0.7-0.2-1-0.2 0.5-0.3 1.1-0.3 1.6-0.2 1-0.5 1.7-1.1 2.4-0.2 0.2-0.4 0.4-0.5 0.6 0.2 0.1 0.4 0.1 0.6 0.2 0.8 0.2 1.2 0.5 1.2 0.7 0 0.1 0 0.4-0.1 0.8 0 0.5-0.1 0.8-0.1 0.9v1.3c0.4-0.1 0.9-0.2 1.3-0.4 0.3-0.1 0.6-0.1 0.8-0.1-0.1-1.2-0.2-2-0.4-2.5s-0.3-1-0.3-1.4 0.5-0.6 1.5-0.6c0.7 0 1 0.4 1 1.1v3.1c0.7-0.1 1.5-0.3 2.3-0.5l0.1-3.1c0-0.3 0-0.6-0.1-1 0-0.2 0.1-0.3 0.2-0.5 0.2-0.2 0.5-0.3 0.9-0.3 0.3 0 0.7 0.1 1.1 0.3 0.3 0.2 0.5 0.4 0.5 0.6 0 0.1-0.1 0.2-0.2 0.3-0.3 0.3-0.4 0.9-0.5 1.7 0 0.6-0.1 1.1-0.1 1.7 0.8 0 1.6-0.1 2.3-0.3 0.1-1.3 0.1-2.8 0.2-4.3 0-0.6 0.3-0.9 0.9-0.9 1.3 0 2 0.4 2 1.1-0.4 0.5-0.7 1.3-0.8 2.3-0.1 0.4-0.1 0.9-0.2 1.2h0.2c0.8-0.4 1.4-0.6 1.9-0.6 0.3 0 0.7 1.3 1.2 3.9 0 0.3-0.3 0.4-0.7 0.4l-1.7-0.2h-1.4c-0.3 2.4-0.5 4.1-0.6 5.2 1.3-0.2 2.5-0.4 3.6-0.6 0.6-0.2 1.2-0.3 1.8-0.3 0.2 0.6 0.3 1.2 0.6 1.8 0.3 0.9 0.5 1.8 0.6 2.7-0.1 0.6-0.2 0.9-0.4 1-0.1 0-0.6-0.2-1.3-0.6-0.8-0.4-1.5-0.6-2.2-0.6-2.8 0-6.7 0.3-11.5 1-4.2 0.7-7.4 1.5-9.5 2.5-0.3 0-0.6-1.2-1-3.6l0.7-0.2h0.9c1.6-0.3 3.2-0.6 4.7-0.8 0-0.1 0-0.3 0.1-0.4v-1c-0.2-1.2-0.3-2.3-0.5-3.3-0.9 0.4-1.8 0.8-2.6 1.3-0.2 0-0.5-0.4-0.9-1.2-0.4-1.1-0.6-1.7-0.6-1.9 0-0.4 0.2-0.6 0.7-0.8 0.9-0.1 1.9-0.2 3-0.4-0.2-1.7-0.4-2.9-0.5-3.6-0.4 0.3-0.7 0.5-1 0.6-0.7 0.3-1.4 0.7-2 1.1-0.1 0-0.2-0.1-0.2-0.4s0.2-0.9 0.7-1.5c1.8-3 3.3-5.8 4.6-8.5 1.4-3.1 2.4-6.1 3.1-8.8 0.5-0.8 0.6-1.1 0.8-1.1m-2.5 29.4c0.7-0.1 1.3-0.2 1.9-0.3 0-2.1-0.1-3.9-0.2-5.4-0.8 0.2-1.5 0.4-2.2 0.6 0.1 1.7 0.3 3.4 0.5 5.1m3.6-0.6 1.8-0.3v-0.7l0.2-4.8c-0.5 0.1-0.9 0.1-1.4 0.2-0.2 0-0.5 0.1-0.7 0.1 0 1.7 0 3.6 0.1 5.5m3.7-0.6c0.6-0.1 1.2-0.2 1.8-0.4 0.2-1.3 0.4-3.1 0.6-5.3-0.7 0.1-1.4 0.2-2.3 0.3-0.1 1.6-0.1 2.9-0.1 3.6v1.5 0.3m-9.7 5c0.4 0 0.6 0.1 0.6 0.4-0.6 2.5-0.9 4.2-1.1 5.2-0.1 1-0.2 1.8-0.4 2.6l-0.3 2.1c0 0.6-0.1 0.9-0.2 0.9-0.4 0-0.8-0.6-1.3-1.7-0.7-1.2-1-2-1-2.4 0-0.3 0.2-0.5 0.5-0.6 0.3-0.4 0.6-1 0.9-1.7 0.3-1.1 1.1-2.7 2.3-4.8m3.8 0.6c0.2 0.2 0.4 0.7 0.6 1.7 0.3 1 0.6 1.8 1 2.6 0.4 1.1 0.7 2.1 0.7 3.3 0 0.5-0.2 0.8-0.6 0.8-0.6-0.6-1.2-1.1-1.7-1.4-0.5-0.2-0.8-1.5-0.8-3.7 0-1.1 0.1-1.9 0.3-2.6 0.2-0.5 0.3-0.7 0.5-0.7m5.5-0.4c0.2 0.2 0.4 0.7 0.6 1.6 0.3 0.9 0.7 1.7 1.1 2.6 0.5 1 0.7 2.1 0.8 3.1 0 0.6-0.2 0.9-0.6 0.9-0.7-0.6-1.3-1.1-1.9-1.3s-0.9-1.5-0.9-3.6c0-1 0.1-1.8 0.3-2.6 0.2-0.5 0.4-0.7 0.6-0.7m3.8-1.5c0.2 0 1.3 0.8 3.1 2.5 0.6 0.7 1.1 1.2 1.5 1.3 0.2 0.4 0.3 2 0.3 4.8 0 0.6-0.1 1.4-0.4 2.2-0.2 0.7-0.5 1.1-0.7 1.1s-0.3-0.3-0.5-0.9c-1-3.4-2-6.4-3.1-9-0.4-0.6-0.6-1.1-0.6-1.4 0-0.4 0.1-0.6 0.4-0.6m-17.6 33.6c0.2 0 0.5 0.1 1.1 0.4 0.2-0.1 0.4-0.3 0.6-0.4 2.1-1 5.1-1.8 9-2.5 2.8-0.5 5.1-0.8 7-0.8 2.6 0 4.5 0.5 5.7 1.5 0.7 0.7 1.1 1.4 1.1 2 0 0.2-0.1 0.4-0.2 0.7-0.4 0.8-0.7 2.2-0.9 4.3-0.9 8.6-1.8 13.9-2.6 15.9-0.5 2-0.9 3.7-1.2 5.1-0.1 1.1-0.4 1.6-0.8 1.6-0.2 0-0.4-0.1-0.6-0.4-0.6-0.8-1.3-1.7-2.1-2.6-0.4-0.4-0.9-1.2-1.6-2.4-0.9 0.1-1.8 0.4-2.9 0.7-1.2 0.3-2.3 0.6-3.3 0.7-1.4 0.2-2.8 0.5-4.3 1-0.1 0-0.2 0-0.3-0.2-0.3 0-0.5 0.1-0.8 0.2-0.6 0-1.5-2.5-2.5-7.4-0.9-5.5-1.4-10.9-1.4-16.4 0.1-0.6 0.4-1 1-1m3.9 20.7c0.1-0.1 0.2-0.1 0.3-0.1 7.4-1.2 11.3-1.8 11.6-1.9 0.5 0.1 0.7 0.9 0.7 2.3v0.5c0.6-0.7 1.1-2.2 1.6-4.6 1.1-5.7 1.7-10.4 1.7-14.2 0-1.8-1.3-2.7-3.6-2.7-1.6 0-3.9 0.3-6.7 1-2.6 0.9-4.9 2.1-6.7 3.4-0.2 2.6-0.2 4.6-0.2 6-0.3 2.5 0.2 5.9 1.3 10.3m2-14.6 1 0.3c2.5-0.9 4.5-1.4 5.7-1.5l1.5-0.3c0.5 0 1 0.4 1.7 1.1 0.6 0.7 0.8 1.4 0.8 1.9 0 0.2-0.2 0.5-0.5 0.8-0.4 0.5-1 2.4-1.9 5.6-0.2 0.9-0.4 1.3-0.7 1.4-0.3 0-0.7-0.2-1.1-0.7-2.3 0.6-3.6 1.1-4 1.4-0.2 0.2-0.4 0.2-0.6 0.2-0.5 0-1-1.5-1.7-4.3-0.5-2.3-0.7-3.8-0.7-4.6 0.1-0.9 0.2-1.3 0.5-1.3m2.6 6.6c0.4 0 1.4-0.2 2.9-0.6 0.3 0 0.6-0.2 0.8-0.7 0.3-0.8 0.5-1.6 0.5-2.4 0-1.1-0.2-1.6-0.5-1.6-0.5 0-1.2 0.1-2.1 0.5-1.1 0.5-1.6 1-1.6 1.4-0.1 2.2 0 3.4 0 3.4m9.3 39.9c0.4 0.1 0.8 1.6 1.2 4.3 0 0.4-0.3 0.7-0.8 0.8-2.7 1.5-5.1 2.6-7.1 3.4-0.1 0.4-0.1 0.8-0.2 1.2v0.1c0.4 1.4 2 3.9 4.6 7.5 3.1 4 5.4 6.6 7.1 7.9 1.2 0.8 2.2 1.6 3.1 2.7 0.7 0.6 1.1 1.2 1.1 1.6-0.1 0.4-0.4 0.7-0.9 0.7-2.8 0-5.1-0.3-7-0.8-1.1-0.4-1.7-1.1-1.8-2.1 0-1.4-0.2-2.4-0.6-3.1-1.5-3.1-3.6-6-6.4-8.8l-0.1-0.1c-1 3.8-2.7 7.3-5.1 10.5-0.9 1.1-1.5 2.1-1.8 2.9-0.2 0.5-0.3 0.8-0.5 0.8-1.1-0.2-2.1-0.4-2.9-0.4-0.6 0-1.3-0.3-2.3-1-0.5-0.4-0.8-0.7-0.8-0.9 0-0.4 0.2-0.7 0.6-0.8 3.2-0.7 5.9-2.7 8.1-6.1 1.3-2.5 2.3-6.1 3-10.9-0.3 0.1-0.6 0.1-0.9 0.2-2.1 0.4-3.6 1-4.6 1.6-0.3 0-0.6-1.1-0.9-3.4-0.1-1.2-0.2-2.1-0.3-2.6 0.1-0.7 0.3-1.1 0.8-1.2 2.4-0.1 4.6-0.4 6.6-0.9 0.5-4.2 0.7-8.4 0.7-12.4l-0.3-2.9c0-0.6 0.4-0.9 1.2-1 0.4 0 1 0.1 1.7 0.5 0.8 0.3 1.2 0.8 1.2 1.4 0 0.2-0.2 0.5-0.6 0.9-0.4 0.7-0.7 1.7-0.9 2.9-0.1 3.1-0.2 6.3-0.5 9.7v0.3c1.5-0.4 2.9-1 4.2-1.7 1-0.4 1.7-0.7 2.1-0.8m-0.5 56.4c-0.7 0-1.9 0.1-3.7 0.4-0.2 2-0.4 4.2-0.7 6.6-0.3 2.2-0.6 4.1-0.9 5.7 1.2 1 2.8 2.7 4.7 5.1 1.1 1.5 2.2 2.4 3.3 2.8 0.6 0.2 1.8 1 3.5 2.3 1 0.6 1.9 1.6 2.7 2.9 0 0.7-1.2 1.1-3.7 1.1-1.9-0.6-3.5-1-4.6-1-0.7 0-1-0.5-1.1-1.5 0-2-0.5-3.4-1.4-4.4s-1.8-1.9-2.8-2.5c-0.3-0.2-0.8-0.5-1.4-1-0.1 0.2-0.1 0.4-0.2 0.6-0.8 2.3-2.1 3.7-3.7 4.3-1.6 0.8-2.7 1.6-3.1 2.3-0.4 0.5-0.9 0.8-1.6 0.8-2.6 0-4.2-0.6-4.9-1.8-0.4-0.8-0.6-1.3-0.8-1.6-0.3-0.2-0.4-0.5-0.4-0.7 0-0.4 0.2-0.6 0.7-0.6 0.3 0 0.7 0.1 1.3 0.2 1 0.4 1.9 0.6 2.7 0.6 0.9 0 1.9-0.4 2.8-1.1 1.8-1 3-2 3.6-3.1 0.3-0.4 0.6-1.1 0.9-2-0.5-0.4-1.2-1-1.8-1.5-0.8-0.7-1.5-1.1-2-1.1-0.3-0.1-0.5-1.4-0.5-3.7 0-1.6 0.3-2.4 0.9-2.4 0.4 0 0.8 0.5 1.3 1.6 0.5 1.2 1.3 2.4 2.6 3.5l0.4 0.4c0.2-1.1 0.5-2.3 0.7-3.6 0.3-1.6 0.5-3.8 0.8-6.6h-0.6c-2.8 0.6-5.3 1.5-7.3 2.8-0.2 0-0.6-0.4-1-1.3-0.4-1.3-0.7-2.1-0.7-2.3 0-0.4 0.3-0.7 0.8-0.9 1.4-0.1 3.2-0.5 5.5-1.4 1.1-0.3 2.4-0.6 3.7-1 0.2-2.5 0.4-5.3 0.6-8.5 0-0.4-0.1-1-0.2-1.7-0.2-0.5-0.3-0.9-0.3-1.1 0-0.4 0.4-0.6 1.1-0.6s1.4 0.2 2.1 0.7c0.5 0.2 0.8 0.4 0.8 0.7 0 0.2-0.1 0.5-0.2 0.8-0.3 0.4-0.5 1.6-0.6 3.6 0 1.5-0.1 3.4-0.3 5.5 1.2-0.2 2.2-0.5 3-1 0.7-0.4 1.3-0.6 1.6-0.6 0.5 0 1.1 1.7 1.7 5.1 0 0.4-0.3 0.7-0.8 0.7l-2.5-0.5m-1 44.4c0.2 0 0.3 0.7 0.4 2.1 0 1-0.2 1.6-0.6 1.8-2.1 1.6-3.7 2.8-4.8 3.4-0.1 1.5-0.2 2.9-0.3 4.2 2.5-0.8 4.6-1.7 6.4-2.7 0.3 0.1 0.9 1.7 1.8 5.1-0.1 0.7-0.3 1.1-0.8 1.1-2.9 0.3-5.3 0.7-7.3 1 0.6 1.5 2.1 3.8 4.4 6.9 3.1 3.9 5.4 6.5 7.1 7.8 1.2 0.7 2.2 1.5 3.1 2.6 0.7 0.7 1.1 1.2 1.1 1.6-0.1 0.4-0.4 0.6-0.9 0.6-2.8 0-5.1-0.3-7-0.8-1.1-0.4-1.7-1.1-1.8-2.1 0-1.4-0.2-2.5-0.6-3.1-1.5-3.1-3.6-6-6.4-8.7-0.1-0.1-0.3-0.2-0.4-0.3-0.5 2-1.1 3.6-1.8 4.8-0.7 1.4-1.2 2.9-1.4 4.5-1.5 1.7-3.1 3-4.6 3.9-1.2 0.4-2.2 0.6-3 0.6-1 0-1.5-0.2-1.5-0.7 0-0.1 0.4-0.4 1.1-1 2.8-2.2 5.1-4.7 6.8-7.4 1.2-2.1 2.1-4.9 2.7-8.3-0.7 0.2-1.3 0.4-1.9 0.7-1.6 0.6-2.8 0.9-3.7 0.9-0.4 0-1-1.3-1.9-3.8 0-0.5 0.2-0.8 0.6-0.9 2.8-0.4 5.3-0.8 7.5-1.4 0.2-1.3 0.3-2.8 0.4-4.4h-0.1c-0.6-0.1-0.9-0.1-1.1-0.1-0.3 0.1-0.8 0.3-1.5 0.5-0.6 0.4-1.2 0.7-1.5 0.8-0.2 0-0.4-0.5-0.5-1.5 0-0.9-0.2-1.7-0.3-2.4-0.2-0.6-0.4-1.2-0.4-1.7 0-0.4 0.2-0.7 0.4-0.8l3.8 0.2c0.5 0 0.9 0 1.4-0.1v-4.4l-0.4-7.9c0.2-0.7 0.5-1 1.1-1 2 0.2 2.9 0.6 2.9 1.3-0.4 2.3-0.7 5.6-1 9.7 0 0.6 0 1.2-0.1 1.7 0.8-0.3 1.6-0.7 2.4-1.1 1.2-0.9 1.9-1.2 2.2-1.2"/>
	<path d="m756.9 372.2c0.5 0 1.2-0.1 2.3-0.2 0.2-0.5 0.4-1 0.7-1.6 0.4-0.9 0.6-1.3 0.7-1.3 0.2 0 0.3 0.3 0.4 0.8-0.1 0.7-0.2 1.3-0.3 1.9l1.5-0.3c0.3-0.1 0.7-0.1 1-0.2-0.1-0.6-0.2-1.3-0.4-2.1 0-0.2 0.3-0.3 0.8-0.4 0.3 0 0.6 0.7 1 1.9 1-0.3 2-0.8 2.9-1.4 0.2 0 0.4 0.3 0.7 1 0.3 0.9 0.5 1.5 0.5 1.6 0 0.3-0.2 0.6-0.6 0.7-0.8 0-1.8 0.2-3 0.5 0.3 1.7 0.4 3.3 0.4 5 0 0.4-0.2 0.6-0.5 0.6-0.2 0-0.5-0.1-1.1-0.4-0.4-0.3-0.7-0.5-0.7-0.8 0.2-1.3 0.3-2.3 0.3-3 0-0.3 0-0.6-0.1-1-1 0.2-2.1 0.4-3.3 0.7-0.4 2.1-0.9 4.1-1.3 5.9-0.1 0.7-0.3 1.1-0.6 1.1-1.3-0.8-2-1.5-2-2 0-0.1 0.1-0.2 0.2-0.4 0.2-0.4 0.7-1.5 1.4-3.3 0-0.2 0.1-0.5 0.3-0.9-0.4 0.1-0.7 0.2-1 0.3-0.5 0.2-0.9 0.4-1.2 0.4s-0.6-1-1-2.9c0-0.4 0.2-0.7 0.5-0.7l1.5 0.5m11.3-5.5h-0.5c-1.4 0.6-2.4 1-3.1 1.1-0.5 0.2-0.8 0.2-0.8 0.2-0.3 0-0.5-0.2-0.9-0.7-0.3-0.5-0.5-0.9-0.5-1.3 0-0.1 0.1-0.3 0.2-0.5 0.2-0.3 0.5-1.4 0.9-3.3 0.1-0.5 0.2-0.8 0.3-0.9 0.2 0 0.3 0.1 0.6 0.2 0.2-0.1 0.3-0.1 0.5-0.2-0.1-0.1-0.3-0.2-0.5-0.4-0.4-0.4-0.5-0.6-0.5-0.7s0.1-0.3 0.3-0.6l1.3-1.9c-0.2 0-0.3-0.1-0.4-0.2-0.1 0.3-0.2 0.5-0.5 0.7-0.9 0.2-1.8 0.4-2.6 0.6 0.1 0.1 0.2 0.1 0.3 0.2 0.3 0.3 0.4 0.7 0.4 1.1 0 0.3-0.2 0.9-0.5 1.7-0.2 0.5-0.4 0.8-0.5 0.9 0.1 0.4 0.2 0.9 0.3 1.4 0.3 1.5 0.4 2.6 0.4 3.1s-0.1 0.8-0.3 0.8h-0.5c-1.4 0.7-2.5 1.1-3.2 1.2-0.5 0.2-0.8 0.3-0.8 0.3-0.3 0-0.6-0.2-1-0.7-0.3-0.5-0.5-1-0.5-1.3 0-0.1 0.1-0.3 0.2-0.5 0.2-0.3 0.5-1.7 1-4 0.1-0.6 0.2-0.9 0.4-1 0.1 0 0.3 0.1 0.5 0.4 1.4-0.4 2.2-0.7 2.3-0.9 0.2-0.1 0.3-0.2 0.3-0.2 0.1 0 0.1 0 0.2 0.1-0.1-0.5-0.3-0.9-0.5-1.2s-0.4-0.6-0.4-1.1c-2 0.5-3.1 0.7-3.3 0.8-0.3-0.1-0.4-0.5-0.4-1.3 0-0.4 0.2-0.7 0.5-0.8 0.7-0.1 1.6-0.3 2.5-0.7 0.2-0.1 0.3-0.1 0.5-0.2 0-0.4 0-1 0.1-1.8v-0.1c-1.6 0.4-2.5 0.7-2.6 0.7-0.3-0.1-0.4-0.6-0.4-1.5 0-0.4 0.2-0.7 0.7-0.8 0.6-0.1 1.3-0.3 2.1-0.6h0.2c0-0.6 0.1-1.2 0.1-1.7-1.8 0.4-2.8 0.7-2.9 0.7-0.3-0.1-0.4-0.5-0.4-1.4 0-0.4 0.2-0.7 0.7-0.8 0.6-0.1 1.4-0.2 2.2-0.5 0.2 0 0.3-0.1 0.4-0.1v-1.9h-0.3c-0.8 0.1-1.5 0.2-2.1 0.4-0.4 0.2-0.6 0.3-0.9 0.3-0.2 0-0.5-0.8-0.8-2.5 0-0.3 0.1-0.4 0.4-0.4h1.2c0.5 0 1.8-0.1 3.7-0.3 1.5-0.2 2.7-0.6 3.7-1.1v-4.1c0-0.4 0.4-0.6 1.1-0.6 0.6 0 0.9 0.1 0.9 0.4-0.2 2.8-0.4 8.3-0.5 16.5 0.4-0.7 0.8-1.4 1-1.9 0.2-0.3 0.4-0.7 0.4-1.1 0-0.2 0.3-0.5 0.7-0.8 0.6-0.5 1.3-0.8 2.2-0.8 0.4 0 0.6 0.1 0.6 0.4-1.2 1.1-2.3 2.5-3.3 4.3-1.1 1.8-1.9 3.5-2.5 5.2l0.4-0.2c0.1-0.1 0.2-0.2 0.3-0.2 0.4 0 0.8 0.9 1.4 2.6 0.4 1.4 0.6 2.3 0.6 2.8 0.2 0.4 0.1 0.7-0.1 0.7m-3.1-20.7c-0.6 0.1-1.4 0.3-2.3 0.6-0.2 0-0.5 0.1-0.7 0.1v1.9c0.7-0.1 1.4-0.3 2.2-0.6 0.3 0 0.4 0.5 0.4 1.4 0 0.4-0.2 0.6-0.6 0.8-0.7 0.2-1.4 0.3-2.1 0.5v1.6c0.7-0.1 1.4-0.4 2.2-0.7 0.3 0 0.4 0.5 0.4 1.5 0 0.4-0.2 0.6-0.6 0.8-0.8 0.2-1.5 0.4-2.1 0.6v2c0.8-0.1 1.7-0.4 2.5-0.7 0.2 0 0.3 0.2 0.4 0.6 0-0.6 0-1.4 0.1-2.3 0.1-3.2 0.2-5.9 0.2-8.1m1 16.5c-0.2 0-0.6 0.2-1.2 0.6-0.1 0-0.2 0.2-0.3 0.5-0.1 0.5-0.1 1.1-0.1 1.6 0 0.7 0.1 1.1 0.3 1.1 0.3 0 0.6-0.2 1-0.5 0.5-0.3 0.8-0.7 0.8-1 0-1.5-0.2-2.3-0.5-2.3m-5.6 1.3c-0.2 0-0.7 0.1-1.6 0.4-0.1 0-0.3 0.2-0.4 0.5-0.1 0.6-0.2 1.3-0.2 1.9s0.1 1 0.4 1c0.2 0 0.6-0.1 1-0.4 0.6-0.4 0.9-0.7 0.9-1 0-1.6 0-2.4-0.1-2.4m-6.1 7.6c-0.2 0-0.5 0-0.7-0.1-0.2 0.1-0.5 0.2-0.8 0.3-2.1 1-3.8 1.5-4.9 1.5-0.5 0-1.2-0.3-2-0.8-0.6-0.4-0.9-0.9-0.9-1.2 0-0.4 0.1-0.9 0.3-1.7 0.2-1.2 0.5-6.5 1.1-15.9 0-0.1 0.3-0.2 1-0.2s1 0.1 1 0.4v1.3c1-0.1 2.1-0.4 3.2-0.7-0.3-0.2-0.4-0.5-0.5-0.8 0-0.5 0.9-2.8 2.4-6.7 0.4-1 0.7-2.4 1-4.2 0.3-1 1-1.8 2.3-2.2 0.9-0.2 1.7-0.4 2.3-0.4 0.3 0 0.5 0.1 0.5 0.4-2.3 2.2-3.9 4.8-5 7.8-0.8 2.1-1.2 3.9-1.3 5.3 0.1-0.1 0.2-0.1 0.3-0.2 0.3-0.3 0.5-0.5 0.7-0.5s0.3 0.2 0.6 0.7c0.2 0.3 0.2 0.7 0.2 1.2v6.8c-0.1 2.4-0.1 4.9-0.1 7.6 0 0.3 0 0.6 0.1 1 0 0.3 0.1 0.5 0.1 0.6-0.3 0.4-0.5 0.7-0.9 0.7m-6.1-13.8c-0.1 3.9-0.2 7.6-0.2 10.9 0 1.5 0.4 2.3 1 2.3 1 0 2.2-0.6 3.7-1.9 0-0.7 0.1-1.5 0.2-2.4-0.8 0.2-2.1 0.5-3.8 1-0.2 0-0.2-0.5-0.2-1.4 0-0.3 0.2-0.5 0.5-0.7 0.9-0.6 1.6-0.9 2.2-1.1 0.4-0.1 0.9-0.4 1.5-0.8 0-0.8 0-1.6 0.1-2.3-0.8 0.2-2.1 0.7-4 1.4-0.2 0-0.2-0.5-0.2-1.6 0-0.2 0.2-0.4 0.5-0.6 0.9-0.6 1.6-1 2.2-1.2 0.4-0.1 1-0.4 1.7-0.9v-0.9c0-0.7-0.1-1.1-0.3-1.1s-0.7 0.1-1.4 0.4c-1.9 0.6-3 0.9-3.5 0.9m1.3-4c-0.6 0-1-0.2-1.2-0.6 0-0.3 0.2-1.2 0.5-2.8 0.2-1.4 0.3-2.5 0.3-3.4 0-1.4-0.1-2.3-0.4-3-0.4-0.6-1-1-1.8-1-1.5 0-2.5 0.4-3.1 1.2-0.4 0.7-0.6 1.7-0.6 3.3l0.2 5c0 0.3 0 0.4-0.1 0.4-0.2 0-0.6-0.9-1.1-2.8-0.6-2.7-0.9-4.8-1-6.4-0.1-0.8-0.1-1.5-0.1-1.9-0.1-0.3-0.1-0.5-0.1-0.7 0-0.4 0.2-0.6 0.5-0.6 0.8-0.2 1.7-0.4 2.8-0.7 0.7-0.2 1.4-0.3 2.2-0.3 1.2 0 2.2 0.7 3.1 2 0.8 1.3 1.1 3.1 1.1 5.6 0 1.9-0.1 3.8-0.4 5.7 0 0.6-0.3 1-0.8 1m10.4-36.7c-0.2-0.1-0.4-0.5-0.4-1.4s0.3-1.6 0.8-2.3c0.9-0.6 1.7-1.2 2.6-1.6v-1.6c-1-0.2-2.1-0.9-3.4-1.9-0.3-0.3-0.5-0.8-0.5-1.4 0.2-2.3 0.5-3.4 0.9-3.4 0.2 0.1 0.5 0.4 0.9 1.1 0.5 1 1.2 2 2.2 3.1v-1.2c0-9.5-0.1-15.9-0.4-19.2 0-0.8 0.2-1.2 0.7-1.2 0.1 0 0.4 0.2 1.1 0.7 0.6 0.3 0.9 0.8 0.9 1.5 0 0.2-0.1 1-0.3 2.3 0 1.5 0 6.3-0.1 14.4l4.3-7c0.9-1.5 1.6-2.3 1.9-2.3 0.2 0 0.4 0.1 0.8 0.4 0.2 0.2 0.3 0.4 0.3 0.7 0 0.4-0.2 0.8-0.5 1.1-1.2 1.4-2.4 3.4-3.6 6.1-1.1 2.3-2 4.6-2.7 6.9 1.1-0.4 2.3-1.1 3.7-2.1 0.3 0 0.6 0.8 0.8 2.5 0.2 1.2 0.3 1.9 0.3 2.2 0 0.6-0.3 0.9-0.8 0.9-1.1 0.1-2.6 0.4-4.4 0.9v9.3l0.2 3.5c0 0.6-0.3 1-0.6 1.3-0.3-0.1-0.9-0.4-1.7-1.1-0.7-0.7-1.1-1.2-1.1-1.6 0-0.2 0.1-0.5 0.3-0.8 0.2-0.4 0.4-1.2 0.6-2.4 0.1-1.6 0.2-4.1 0.3-7.5-0.6 0.2-1.1 0.5-1.7 0.7-0.8 0.2-1.2 0.4-1.4 0.4m-14.3 2.4c-0.3 0-0.4-0.8-0.4-2.3 0-0.3 0.3-0.5 0.8-0.8 0.7-0.3 1.4-0.5 2-0.8 0.3-6.7 0.4-11.3 0.5-13.8-1.5 0.2-3 0.4-4.4 0.6-0.4 0.2-0.9 0.2-1.4 0.2-0.1-0.6-0.3-1.2-0.5-1.7-0.3-0.9-0.5-1.8-0.5-2.5 0.1-0.5 0.2-0.8 0.4-0.9 0.1 0 0.5 0.2 1.2 0.6 0.8 0.5 1.4 0.7 2 0.7 2.2 0 5.2-0.2 9-0.7 3.3-0.4 5.8-0.9 7.5-1.5 0.3 0 0.6 1.1 0.9 3.2l-0.5 0.4h-0.9c-1.5 0.2-3 0.4-4.5 0.6 0 5.2 0.1 9.4 0.2 12.7 0.4-0.1 0.8-0.3 1.2-0.4 0.3 0 0.5 0.4 0.7 1.2 0.2 0.6 0.2 1.2 0.2 1.7 0 0.4-0.2 0.6-0.6 0.6-0.3 0-0.8 0.1-1.5 0.2 0.1 1.7 0.2 3 0.3 3.9 0.1 1 0.2 1.8 0.3 2.5 0 0.4-0.5 0.6-1.6 0.6-0.8 0-1.2-0.3-1.2-1v-5.5c-1.2 0.3-2.6 0.6-4.3 1 0 2.7-0.1 5.7-0.1 9 0 0.5-0.3 0.8-1 0.8-1.4 0-2.1-0.4-2.1-1.2 0.3-1.1 0.4-2.6 0.5-4.6 0.1-1.2 0.1-2.3 0.2-3.4-0.8 0.3-1.6 0.5-2.4 0.6m9-18.3c-1.3 0.1-2.6 0.3-3.8 0.5-0.1 3-0.2 7.5-0.3 13.4 0.8-0.2 1.4-0.3 2-0.4 0.7-0.1 1.4-0.2 2.2-0.4v-2.5c-0.7 0.1-1.8 0.4-3.1 0.7-0.2 0-0.3-0.7-0.3-2.1 0-0.2 0.2-0.4 0.7-0.6 0.7-0.4 1.3-0.6 1.8-0.7 0.3-0.1 0.6-0.2 1-0.3v-2.1c-0.7 0.2-1.7 0.5-3.1 0.9-0.2 0-0.3-0.7-0.3-2 0-0.2 0.2-0.5 0.7-0.7 0.7-0.3 1.3-0.6 1.7-0.7 0.3 0 0.6-0.1 1-0.3-0.2-1-0.2-1.8-0.2-2.7m0.3-4.2c-0.3 0-0.5-0.1-0.5-0.4 0.8-2.2 1.3-3.6 1.5-4.4s0.4-1.6 0.6-2.2 0.3-1.2 0.4-1.8c0.1-0.5 0.2-0.8 0.4-0.8 0.4 0 0.8 0.6 1.3 1.6 0.7 1.2 1 2 1 2.5 0 0.2-0.2 0.5-0.5 0.7-0.4 0.3-0.8 0.8-1.1 1.3-0.4 0.8-1.5 1.9-3.1 3.5m-4.5 0.2c-0.2 0-1.3-0.6-3.1-1.9-0.6-0.5-1.1-0.8-1.5-1-0.2-0.3-0.4-1.6-0.4-3.7 0-0.6 0.1-1.3 0.4-2.2 0.2-0.7 0.4-1.1 0.6-1.1s0.4 0.3 0.5 0.8c1 2.8 2 5.2 3.2 7.3 0.4 0.5 0.5 0.9 0.6 1.2 0.1 0.4 0 0.6-0.3 0.6m-0.4-30.3c1 0 2.2-0.1 3.5-0.2 0.1-0.2 0.2-0.4 0.3-0.7 0.5-0.9 0.8-2.2 1-4 0.6-10.1 1-16.8 1-20.2 0-0.9 0-1.7-0.1-2.5-0.1-1-0.2-1.8-0.2-2.5 0.1-0.5 0.5-0.8 1.2-0.8 1.2 0 1.9 0.4 2 1.2 0 0.4 0 0.8-0.1 1v1.5 18.9l7.2-10.7c1.5-2.2 2.6-3.3 3.2-3.3 0.3 0 0.7 0.3 1.3 0.8 0.4 0.4 0.5 0.8 0.5 1.3s-0.3 1-1 1.6c-2 1.9-4.1 4.6-6.3 8.3-1.9 3.1-3.4 6.3-4.5 9.4 3.2-0.6 5.5-1.4 7.2-2.3 0.4 0 0.8 1.6 1.3 4.9l-0.8 0.2h-1.3c-6.9 1.4-12.7 2.6-17.4 3.5-0.4 0.3-0.9 0.4-1.5 0.4-0.2-0.9-0.5-1.7-0.8-2.6-0.5-1.3-0.7-2.5-0.8-3.6 0.1-0.8 0.3-1.2 0.5-1.3 0.2 0 0.7 0.3 1.7 0.8 1 0.7 2 0.9 2.9 0.9m3.9-8.8c-1.6-1-3-1.7-4.4-2.4s-3-1.9-4.8-3.6c-0.2-0.5-0.3-1.1-0.3-1.6 0.3-3.9 0.9-5.8 1.6-5.8 0.2 0 0.5 0.3 0.6 1 1 2.3 3.5 6.3 7.5 11.9 0 0.4-0.1 0.5-0.2 0.5m10.4-35.1c-0.3-0.2-0.6-0.8-0.8-1.7-0.3-0.9-0.8-1.7-1.4-2.6-0.6-1-0.9-2.1-0.9-3.1 0.1-0.9 0.4-1.3 0.9-1.3 0.9 0.5 1.7 0.8 2.4 1s1.1 1.1 1.1 2.7c0 1.5-0.2 2.8-0.5 3.8-0.3 0.7-0.5 1.1-0.8 1.2m-5-9.9c-0.3 0-0.4-0.7-0.4-2 0-0.3 0.2-0.6 0.6-0.8 2.2-1.1 4.1-1.7 5.6-2 1.3-0.2 2.9-0.8 4.8-1.7 0.3 0 0.6 0.4 0.8 1.3 0.2 0.7 0.2 1.4 0.2 2 0 0.4-0.2 0.6-0.5 0.6-1 0.1-4.7 0.9-11.1 2.6m1.6-5.9c-0.3-0.1-0.5-0.7-0.5-1.8 0-0.6 0.3-0.9 0.8-1.1 0.6-0.1 1.4-0.3 2.2-0.7 0.7-0.3 1.3-0.5 1.9-0.6 0.8-0.2 1.6-0.5 2.5-1 0.3 0 0.5 0.6 0.5 1.8 0 0.6-0.2 1-0.6 1.3-4.4 1.3-6.6 2-6.8 2.1m0.2-5.4c-0.3-0.1-0.5-0.6-0.5-1.6 0-0.5 0.3-0.9 0.8-1.1 0.6-0.1 1.3-0.3 2.1-0.6 0.7-0.2 1.3-0.4 1.8-0.5 0.8-0.2 1.6-0.4 2.4-0.8 0.3 0 0.5 0.5 0.5 1.6 0 0.5-0.2 0.8-0.5 1-4.3 1.4-6.5 2-6.6 2m7.5-6.9-0.8-0.2c-2.2 0.9-3.9 1.4-5.1 1.5-0.8 0.2-1.3 0.4-1.3 0.4-0.4 0-0.9-0.4-1.4-1.1s-0.7-1.2-0.7-1.7c0-0.2 0.1-0.5 0.3-0.8 0.3-0.5 0.7-2.3 1.4-5.4 0.2-0.8 0.3-1.3 0.5-1.4 0.3 0 0.6 0.2 0.9 0.6 2-0.6 3.2-1.1 3.5-1.5 0.2-0.2 0.4-0.4 0.5-0.4 0.5 0.1 1.1 1.5 1.8 4.4 0.6 2.3 0.9 3.9 0.9 4.7-0.1 0.5-0.3 0.9-0.5 0.9m-2.8-6.4c-0.4 0-1.3 0.3-2.7 0.9-0.1 0-0.3 0.3-0.4 0.7-0.1 0.8-0.2 1.6-0.2 2.5 0 1 0.1 1.5 0.4 1.5 0.5 0 1.1-0.2 1.9-0.6 1-0.5 1.5-0.9 1.5-1.3 0.1-2.5-0.2-3.7-0.5-3.7m-19 32c-0.2-0.1-0.4-0.7-0.4-1.7 0-0.9 0.3-1.6 0.8-2.3 1.2-0.4 2.3-0.8 3.4-1 0.1-1 0.3-2.5 0.6-4.6-2 0.5-3.2 0.8-3.4 0.8-0.3 0-0.9-0.3-1.7-0.8s-1.1-1-1.1-1.5c0-0.2 0.1-0.6 0.4-1.2 0.4-1.2 0.8-3.3 1.5-6.1-1 0.2-1.9 0.4-2.7 0.7-0.7 0.3-1.3 0.4-1.7 0.4s-0.8-1.3-1.3-3.9c0-0.4 0.3-0.6 0.7-0.6l1.7 0.1c1.2 0 3.7-0.2 7.7-0.6 3-0.4 5.6-1.1 7.8-2 0.2 0 0.5 0.4 0.8 1.1 0.4 1.1 0.6 1.7 0.6 1.9 0 0.3-0.2 0.5-0.6 0.6-1.1 0-2.4 0.2-4 0.6 0 0.1-0.1 0.2-0.1 0.4-0.4 1.1-0.7 3.2-1.2 6.3 0.1 0 0.1-0.1 0.2-0.1 1.6-1 2.6-1.4 3-1.4 0.2 0 0.4 0.5 0.4 1.5-0.1 1.5-0.3 2.3-0.8 2.5-0.7 0-1.7 0.2-3.2 0.6-0.3 2.1-0.4 3.7-0.4 4.7 1-0.2 2.1-0.6 3.3-1 0.3 0 0.5 0.7 0.6 1.9 0.1 0.9 0.2 1.5 0.2 1.7 0 0.6-0.2 0.9-0.7 0.9-2.1 0.1-5.1 0.6-9 1.6-0.8 0.3-1.2 0.4-1.4 0.5m6-19.3c-1 0.2-2.1 0.3-3.2 0.5-0.5 2.8-0.8 4.7-0.8 5.6s0.2 1.4 0.6 1.4l2.1-0.6c0.4-2.6 0.8-4.9 1.3-6.9m-3.2-5.1c-1.3 0-2.5-0.5-3.5-1.5-0.8-0.8-1.2-1.4-1.2-1.8 0-0.7 0.2-1.3 0.5-1.8 1-1.7 1.7-4.1 2.1-7.2 0.1-0.5 0.3-0.8 0.5-0.8s0.5 0.2 1.2 0.6c0.6 0.3 1.3 0.4 2 0.4 0.6 0 1.6-0.2 2.7-0.5 0.6-0.3 1-0.5 1.4-0.5 0.3 0 0.5 0.3 0.6 0.8 0.3 1.3 0.6 2.6 1 3.7 0.5 1.4 0.9 2.6 1.1 3.7 0.2 0.8 0.3 1.3 0.3 1.7 0 0.6-0.4 1-1.2 1.3-3.3 1.3-5.8 1.9-7.5 1.9m4.4-9.2c-1.2 0-2.4 0.3-3.7 1-0.4 0.2-0.8 0.7-1 1.6-0.3 1-0.4 1.9-0.4 2.7 0 1 0.4 1.5 1.1 1.5 1.2 0 2.6-0.4 4.1-1.2 0.4-0.3 0.6-0.7 0.6-1.3 0-0.5-0.1-1.6-0.3-3.2 0-0.8-0.1-1.1-0.4-1.1m-3.3-22.6c0.9 0 2.7-0.2 5.3-0.5 0.3-1.4 0.7-2.6 1.2-3.4-1.5 0.3-2.8 0.5-3.8 0.5-0.5 0-1.3-0.3-2.3-0.9-0.7-0.5-1-1-1-1.4s0.1-0.9 0.2-1.7c0.2-1.2 0.4-6.2 0.8-14.9-1.9 0.3-3.8 0.6-5.5 0.9-0.5 0.3-1.2 0.4-1.9 0.4l-0.6-2.1c-0.4-1.1-0.7-2.1-0.7-3 0.1-0.6 0.2-0.9 0.4-1 0.2 0 0.6 0.2 1.4 0.6 0.9 0.5 1.7 0.8 2.4 0.8 2.9 0 6.7-0.3 11.4-0.9 0-0.3 0.2-0.7 0.4-1.3 0.4-1.3 1-2.5 1.7-3.7 0.4-0.6 0.6-1.4 0.7-2.4 0.2-0.9 0.7-1.5 1.6-1.7 1.5-0.7 2.9-1.1 4.1-1.1 0.9 0 1.3 0.2 1.3 0.7 0 0.2-0.3 0.5-0.9 0.9-2.3 1.6-3.9 3.1-4.7 4.5-0.6 1.1-1.1 2.4-1.4 3.7 3.5-0.6 6.1-1.3 8.1-2.1 0.3 0 0.7 1.3 1.1 3.8l-0.7 0.2h-1.1c-2 0.3-3.9 0.6-5.7 0.9v0.2c0 7.6 0.3 13.5 0.8 17.6-0.1 1.1-0.2 1.6-0.5 1.6-0.2 0-0.6-0.2-1.1-0.6-0.2 0.2-0.6 0.3-1 0.4-0.5 0.1-1 0.3-1.6 0.4-0.1 0.3-0.1 0.7-0.2 1.1-0.2 0.7-0.4 1.5-0.6 2.4 2.2-0.5 4.1-1.2 5.7-2.1 0.3 0 0.6 0.4 1 1.2 0.4 1.3 0.7 2 0.7 2.2 0 0.4-0.2 0.7-0.7 0.9-1.3 0-2.9 0.3-5 0.9-0.7 0.1-1.4 0.2-2.1 0.4-0.2 1.5-0.4 3.3-0.6 5.3-0.1 0.6-0.3 1-0.7 1-0.3 0-0.9-0.2-1.6-0.7-0.7-0.6-1.1-1-1.1-1.4 0-0.3 0.1-0.6 0.3-0.8 0.2-0.6 0.5-1.5 0.8-2.8-0.1 0-0.2 0.1-0.4 0.1-1.4 0.1-2.7 0.3-3.7 0.7-0.6 0.3-1.2 0.4-1.5 0.4-0.4 0-0.8-1.3-1.3-3.9 0-0.4 0.3-0.6 0.7-0.6l1.9 0.3m9.6-23.8c-2.4 0.4-4.7 0.8-6.8 1.1 0.1 5.2 0.1 10 0.1 14.3 0 1.6 0.4 2.5 1.1 2.5 1.5 0 3.5-0.7 5.9-2.1v-0.4-1.2c-3.3 0.8-5 1.3-5.1 1.3-0.4-0.1-0.5-0.7-0.5-1.8 0-0.5 0.3-0.9 0.8-1s1.1-0.2 1.8-0.5c0.5-0.2 1.1-0.3 1.6-0.4 0.4-0.1 0.9-0.2 1.4-0.4v-1.8c-3.4 0.8-5.1 1.1-5.3 1.1-0.3-0.1-0.5-0.7-0.5-1.8 0-0.5 0.3-0.8 0.8-1 0.5-0.1 1.2-0.2 1.9-0.5 0.6-0.2 1.2-0.3 1.7-0.4s0.9-0.2 1.4-0.4v-1.9c-3.4 0.8-5.2 1.2-5.4 1.2-0.3-0.1-0.5-0.7-0.5-1.9 0-0.5 0.3-0.8 0.8-1 0.6-0.1 1.2-0.3 1.9-0.5 0.6-0.2 1.1-0.3 1.6-0.4s1-0.2 1.5-0.4c-0.2-0.7-0.2-1.3-0.2-1.7m-6-3.5c-0.6-0.2-1.7-0.7-3.1-1.4-1.4-0.6-2.5-1.8-3.5-3.3-0.1-0.3-0.1-0.6-0.1-1 0.3-2.7 0.9-4.1 1.7-4.1 0.4 0 0.7 0.4 1 1.2 1.1 2.7 2.4 5.2 4.1 7.4 0.2 0.3 0.4 0.6 0.4 0.8s-0.2 0.4-0.5 0.4m-3.6-20.8c-0.3 0-0.9-0.3-1.7-0.8s-1.2-1.1-1.2-1.6c0-0.4 0.2-1 0.5-1.8 0.2-0.7 0.4-1.5 0.7-2.6l-3.3 0.6c-0.5 0.3-1.2 0.5-1.9 0.5-0.2-0.7-0.3-1.3-0.6-2-0.4-1-0.6-2-0.6-2.9 0.1-0.5 0.2-0.7 0.4-0.8 0.1 0 0.5 0.2 1.3 0.6s1.6 0.6 2.3 0.6c1 0 2-0.1 3.1-0.2 0.3-1.3 0.6-2.7 0.9-4.2l-0.1 0.1c-0.3 0-0.4-0.8-0.4-2.5 0-0.4 0.3-0.7 0.8-1 2.7-0.9 5-1.4 6.9-1.6 0.4-0.1 0.8-0.1 1.3-0.2 0.5-1.7 1.2-3.4 1.9-5.3-3.8 1.3-6.6 1.9-8.5 1.9-1.4 0-2.6-0.5-3.7-1.5-0.8-0.8-1.2-1.5-1.2-2 0-0.7 0.2-1.4 0.5-1.9 1.1-1.7 1.8-4.2 2.2-7.4 0.1-0.7 0.3-1.1 0.5-1.1s0.6 0.2 1.2 0.6c0.7 0.3 1.4 0.5 2.1 0.5 0.9 0 2.2-0.2 3.9-0.7 0.8-0.4 1.5-0.6 2-0.6 0.2 0 0.4 0.3 0.6 0.8 0.3 1.4 0.6 2.7 1.1 3.9 0.4 1.2 0.7 2.2 0.9 3.2 1-0.9 2-1.6 3.2-2.3 1.6-1.3 3.3-1.9 5.1-1.9 0.2 0 0.3 0.1 0.3 0.2 0 0.6-1.1 1.9-3.3 3.9-2.9 2.9-5 6-6.3 9.2 0.7-0.2 1.5-0.4 2.3-0.6 0.3 0 0.6 0.4 0.8 1.2 0.2 0.6 0.3 1.2 0.3 1.8 0 0.4-0.2 0.6-0.6 0.6-0.6 0.1-2 0.3-4.1 0.7-0.5 1.7-0.8 3.3-1 4.8 4.3-0.9 7.6-2 9.8-3.4 0.3 0 0.7 1.4 1 4.3l-0.8 0.2h-1.1c-3.3 0.7-6.4 1.3-9.3 1.9v1.2c0 0.8 0.2 1.6 0.5 2.5 0 0.1 0.1 0.3 0.1 0.4 0.2-0.1 0.3-0.1 0.5-0.2 2.3-1 3.6-1.5 4.1-1.5 0.3 0 0.4 0.5 0.4 1.5-0.1 1.6-0.4 2.5-1 2.6-1.3 0-3.9 0.5-7.9 1.5-3 0.6-4.6 0.8-4.9 0.8m7.2-16c-1.3 0.3-2.7 0.6-4.4 0.9-0.3 1.7-0.6 3.2-0.9 4.5 1.4-0.2 2.8-0.4 4.3-0.7 0.3-1.4 0.6-3 1-4.7m-1.9 12.2c-0.4-0.3-0.7-0.6-0.7-0.9s0.2-0.8 0.5-1.6c0.2-0.4 0.4-1.1 0.6-2.1-1.5 0.3-3 0.6-4.3 0.9-0.2 1.2-0.2 2.1-0.2 2.8 0 1.1 0.3 1.6 0.8 1.6 1.1-0.1 2.2-0.4 3.3-0.7m2.4-29.3c-1.7 0-3.5 0.4-5.3 1.2-0.5 0.2-0.8 0.8-1.1 1.6-0.3 1.1-0.4 2-0.4 2.9 0 1.1 0.4 1.6 1.2 1.6 1.6 0 3.4-0.5 5.6-1.4 0.6-0.4 0.8-1 0.8-1.6 0-0.5-0.1-1.6-0.3-3.2-0.1-0.8-0.2-1.1-0.5-1.1m-5.4-19.8c-0.7 0-1.8-0.7-3.3-2.2-0.9-1-1.4-1.9-1.4-2.7 0-0.4 0.3-0.9 0.9-1.6 1.4-1 3.5-3 6.2-5.8-0.4-1-0.7-1.9-0.9-2.8-3.3 0.7-6.2 1.3-8.9 1.9-0.6 0.3-1.2 0.5-1.9 0.5-0.2-0.8-0.4-1.6-0.7-2.4-0.4-1.2-0.7-2.3-0.8-3.4 0.1-0.6 0.3-0.9 0.5-1 0.2 0 0.7 0.3 1.6 0.8 1 0.6 1.8 0.9 2.6 0.9 2 0 4.3-0.2 7.2-0.7-0.1-1.3-0.1-2.8-0.1-4.5 0-3.5 0.1-6.6 0.3-9.3 0.2-2.4 0.3-4.2 0.5-5.3 0.1-0.7 0.2-1.5 0.3-2.2 0.1-0.8 0.2-1.2 0.3-1.2 0.4 0 0.7 0.1 1 0.3 0.4 0.2 1 0.4 1.7 0.5 1.2 0.2 2.4 1.1 3.6 2.6 1.8 2.4 2.7 3.9 2.7 4.6 0 0.2-0.1 0.4-0.4 0.4-0.4 0-1-0.4-1.7-1.3-1.8-1.2-3.1-1.7-3.9-1.7-0.4 0-0.7 0.9-1 2.8-0.4 1.8-0.6 5.1-0.6 9.9 0 1.5 0.1 2.8 0.2 4 0.6-0.1 1.2-0.2 1.9-0.3 4.3-0.9 7.6-2 9.8-3.3 0.3 0 0.7 1.4 1 4.3l-0.8 0.3h-1.1c-3.7 0.8-7.1 1.5-10.3 2.3v0.1c0.6 1.8 1.2 2.8 2 3.2 0.4 0.2 0.6 0.5 0.6 0.8s-0.3 0.8-0.9 1.3-1.2 0.7-1.9 0.7c-0.3 0-0.6-0.3-0.9-0.8-0.1-0.1-0.2-0.3-0.2-0.4-2 4-3.1 6.3-3.1 7.2 0 1 0.4 1.5 1.2 1.5 0.7-0.1 1.9-0.9 3.5-2.2 1.8-1.4 3.2-2.6 4.2-3.8 0.3-0.4 0.6-0.6 0.9-0.6s0.8 0.9 1.3 2.7c0.6 1.3 0.8 2 0.8 2.4 0 0.3-0.3 0.5-0.8 0.6-1 0.1-2.8 0.7-5.4 1.7-2.7 0.7-4.6 1.2-5.8 1.2"/>
	<path d="m-6.2 369.9c-0.4 0-0.6-1-0.6-2.9 0-0.5 0.4-0.9 1.1-1.3 0.8-0.4 1.6-0.8 2.3-1 0-1.6 0.1-2.8 0.1-3.7-1.3 0.4-2.7 1-4.1 1.5-0.3 0-0.5-0.8-0.5-2.5 0-0.4 0.3-0.7 0.8-1 1.4-0.7 2.6-1.2 3.8-1.6v-3.6c-0.7 0.2-1.8 0.5-3.3 0.9-0.4 0-0.5-0.8-0.5-2.4 0-0.4 0.3-0.7 0.8-1.1 0.7-0.4 1.3-0.7 1.9-0.9 0.4-0.1 0.8-0.3 1.3-0.6 0-0.9 0.1-1.9 0.1-2.8-0.6-0.3-1.4-0.5-2.5-0.8-1.6-0.5-3.8-1.9-6.6-4-1.4-1.1-2.7-1.8-4-2-0.7-0.2-2.1-0.7-4.1-1.5-1.2-0.5-2.3-1.2-3.2-2 0-1 1.8-1.5 5.3-1.5 2.2 0.4 4 0.7 5.2 0.7 0.8 0 1.2 0.4 1.3 1.1 0.1 1.4 0.6 2.4 1.6 3.1s2 1.3 3.2 1.8c1 0.3 3.3 1.4 6.8 3.3 1 0.5 1.7 0.7 2.2 0.7 0.1 0 0.1 0.1 0.2 0.2 0-0.1 0-0.1 0.1-0.2 0.3-0.9 0.5-1.9 0.6-3.2 0.1-1.2 0.6-1.9 1.3-2.4 1.3-0.9 2.5-1.3 3.5-1.3 0.7 0 1 0.1 1 0.4s-0.2 0.7-0.7 1.2c-2 2.2-3.3 4.2-4 6-0.7 1.9-1.1 4.1-1.4 6.5 0 0.7-0.1 1-0.3 1-1.2 0-1.9-0.4-1.9-1.1 0-0.4 0.1-1.1 0.3-2.1v-0.3c-0.2-0.2-0.5-0.4-0.7-0.7-0.3-0.5-0.7-0.9-1.2-1.4v8.2c0.3-0.1 0.6-0.2 0.8-0.2 1.6-0.4 3.7-1.1 6.1-2.2 0.3 0 0.6 0.4 0.8 1.2 0.2 0.7 0.2 1.3 0.2 1.8 0 0.4-0.2 0.6-0.5 0.6-1 0.1-3.5 0.9-7.5 2.4v3.8c0.8-0.2 1.8-0.6 2.9-1.2 0.4 0 0.7 0.5 0.9 1.4 0.2 0.8 0.3 1.5 0.3 2.2 0 0.6-0.2 0.9-0.6 0.9-0.5 0.1-1.7 0.4-3.5 0.9v9.5c0 0.6-0.3 0.9-0.9 0.9-1.4 0-2.2-0.4-2.2-1.3 0.2-0.7 0.3-1.7 0.3-3.1 0.1-1.9 0.2-3.6 0.2-5.1-0.6 0.2-1.5 0.5-2.5 0.8m-7.9-1.7c-0.5 0-1.2-0.4-2.3-1.2-1.2-0.9-1.7-1.5-1.7-2 0-0.1 0.2-0.4 0.5-0.8 0.4-0.6 1-2 1.8-4.1-0.2-0.4-0.2-1-0.2-1.7 0-0.6 0.3-1.1 1-1.3 0.5-0.1 1.1-0.2 1.7-0.5 0.5-0.2 1-0.3 1.5-0.4s1-0.3 1.5-0.5c0.1-1.6 0.2-2.9 0.2-3.9s-0.2-1.8-0.5-2.3c-0.4-0.5-1.5-0.8-3.2-0.8-1.5 0-2.4 0.2-2.7 0.8-0.4 0.6-0.7 2.4-0.7 5.6 0 0.3 0 0.4-0.1 0.4-0.2 0-0.5-0.4-0.9-1.3-0.8-2.1-1.3-4.2-1.3-6.1 0-0.7 0-1.2-0.1-1.5-0.1-0.2-0.1-0.4-0.1-0.5 0-0.3 0.2-0.4 0.5-0.4s0.7-0.1 1-0.2c0.4-0.1 1.9-0.1 4.5-0.1 2 0 3.1 0.1 3.3 0.4 0.2 0.2 0.4 0.4 0.6 0.5 0.3 0.1 0.7 0.8 1.2 1.8 0.6 1.3 0.9 2.6 0.9 3.8s-0.2 4.3-0.7 9.2c-0.1 1.2-0.2 2.3-0.2 3.3 0 0.4 0 0.9 0.1 1.4 0.1 0.3 0.2 0.6 0.2 0.9s-0.1 0.5-0.4 0.8c-0.2 0.3-0.7 0.5-1.5 0.5-0.3 0-0.6 0-0.9-0.1-0.4 0.1-0.8 0.3-1.4 0.4-0.6-0.1-1.1-0.1-1.6-0.1m3-3.9c0.2-1.8 0.4-3.4 0.6-4.9-0.8 0.2-1.6 0.4-2.2 0.5-0.8 2.6-1.2 3.9-1.2 4.2 0 0.8 0.3 1.3 0.8 1.3 0.7-0.1 1.4-0.5 2-1.1m-1.6-38c-0.5 0-1-1.3-1.3-3.7 0-0.3 0.2-0.5 0.6-0.6 1.4 0 3.3-0.5 5.7-1.4 0.6-0.2 1.1-0.7 1.6-1.6h-0.3c-1 0-1.7-0.3-2.2-0.8-0.3-0.4-0.5-1-0.5-1.9v-2.6c-1.6 0.4-3.3 1-5.2 1.6-0.3 0-0.5-1-0.5-3.1 0-0.4 0.3-0.7 0.9-1 1.8-0.8 3.4-1.4 4.8-1.8v-5c-3.2 0.6-6.1 1.2-8.7 1.7-0.5 0.3-1.1 0.5-1.8 0.5-0.2-0.9-0.4-1.7-0.7-2.4-0.4-1.2-0.7-2.3-0.8-3.4 0.1-0.6 0.3-0.9 0.6-1 0.1 0 0.6 0.2 1.5 0.7 1 0.6 1.9 0.9 2.6 0.9 2 0 4.4-0.3 7.3-0.8v-11.7c0-2.1 0.1-3.8 0.2-5.3 0.2-1.3 0.5-1.9 0.8-1.9 0.2 0 0.6 0.3 1.3 0.8 0.7 0.7 1.4 1.2 2.1 1.5 0.6 0.3 1.6 1.3 3 3.1 0.9 1 1.4 1.6 1.4 1.9 0 0.4-0.2 0.6-0.5 0.6-2-1.1-3.5-1.6-4.6-1.6-0.7 0-1 1-1 2.9v9.2c0.5-0.1 0.9-0.1 1.4-0.2 4.2-0.9 7.4-2.1 9.5-3.5 0.4 0 0.9 1.7 1.3 5l-0.9 0.4h-1.2c-3.6 0.7-7 1.4-10.1 2v4.9c1.4-0.3 3.2-1 5.2-1.8 0.4 0 0.7 0.5 0.9 1.5 0.2 0.8 0.3 1.5 0.3 2.2 0 0.5-0.2 0.8-0.6 0.8-0.8 0.1-2.7 0.6-5.7 1.5v0.9c0 1.3 0.2 2.4 0.6 3.2 0.2 0.2 0.3 0.3 0.4 0.5 0.6-0.7 1.4-1.2 2.5-1.3 1.9-0.5 3.2-0.8 4-0.8 0.4 0 0.6 0.2 0.6 0.6-2.1 2.5-4.2 4.5-6.3 6.2-1.7 1.4-3.4 2.3-5 2.6-1.2 0-2.3 0.5-3.2 1.5m7.3-51.7c-0.2 0-0.7-0.4-1.5-1.2-0.7-0.8-1-1.4-1-1.7 0-0.2 0.2-0.5 0.5-0.8 1.1-1.6 2.4-4 3.9-7.2 0 0 0.1-0.1 0.1-0.2-1.4 0.3-5 1.4-10.6 3.3-0.4 0-0.5-0.9-0.5-2.7 0-0.4 0.3-0.8 1-1.1 2.1-1.1 3.9-1.8 5.3-2.1 1.2-0.3 2.8-0.9 4.5-1.8 0.4 0 0.7 0.5 0.9 1.5 0.1 0.3 0.2 0.7 0.2 1 0.2-0.5 0.3-1.1 0.3-1.6 0.2-1 0.5-1.7 1.1-2.4 0.2-0.2 0.4-0.4 0.5-0.6-0.2-0.1-0.4-0.1-0.6-0.2-0.8-0.2-1.2-0.5-1.2-0.7 0-0.1 0-0.4 0.1-0.8 0-0.5 0.1-0.8 0.1-0.9v-1.3c-0.4 0.1-0.9 0.2-1.3 0.4-0.3 0.1-0.6 0.1-0.8 0.1 0.1 1.2 0.2 2 0.4 2.5s0.3 1 0.3 1.4-0.5 0.6-1.5 0.6c-0.7 0-1-0.4-1-1.1v-3.1c-0.7 0.1-1.5 0.3-2.3 0.5l-0.1 3.1c0 0.3 0 0.6 0.1 1 0 0.2-0.1 0.3-0.2 0.5-0.2 0.2-0.5 0.3-0.9 0.3-0.3 0-0.7-0.1-1.1-0.3-0.3-0.2-0.5-0.4-0.5-0.6 0-0.1 0.1-0.2 0.2-0.4 0.2-0.3 0.4-0.9 0.5-1.7 0-0.6 0.1-1.1 0.1-1.7-0.8 0-1.6 0.1-2.3 0.3-0.1 1.3-0.1 2.8-0.2 4.3 0 0.6-0.3 0.9-0.9 0.9-1.3 0-2-0.4-2-1.1 0.4-0.5 0.7-1.3 0.8-2.3 0.1-0.4 0.1-0.8 0.2-1.2h-0.2c-0.8 0.4-1.4 0.6-1.9 0.6-0.3 0-0.7-1.3-1.2-3.9 0-0.3 0.3-0.4 0.7-0.4l1.7 0.2c0.4 0 0.8 0 1.4-0.1 0.3-2.4 0.5-4.1 0.6-5.2-1.3 0.2-2.5 0.4-3.6 0.6-0.6 0.2-1.2 0.4-1.8 0.4-0.2-0.6-0.3-1.2-0.6-1.8-0.3-0.9-0.5-1.8-0.6-2.7 0.1-0.6 0.2-0.9 0.4-1 0.1 0 0.6 0.2 1.3 0.6 0.8 0.4 1.5 0.6 2.2 0.6 2.8 0 6.7-0.3 11.5-1 4.2-0.7 7.4-1.5 9.5-2.5 0.3 0 0.6 1.2 1 3.6l-0.7 0.2h-1.2c-1.6 0.3-3.2 0.6-4.7 0.8 0 0.1 0 0.3-0.1 0.4v1c0.2 1.2 0.3 2.3 0.5 3.3 0.9-0.4 1.8-0.8 2.6-1.3 0.2 0 0.5 0.4 0.9 1.2 0.4 1.1 0.6 1.7 0.6 1.9 0 0.4-0.2 0.6-0.7 0.8-0.9 0.1-1.9 0.2-3 0.4 0.2 1.7 0.4 2.9 0.5 3.6 0.4-0.3 0.7-0.5 1-0.6 0.7-0.3 1.4-0.7 2-1.1 0.1 0 0.2 0.1 0.2 0.4s-0.2 0.9-0.7 1.5c-1.8 3-3.3 5.8-4.6 8.5-1.4 3.1-2.4 6.1-3.1 8.8-0.2 1.1-0.4 1.3-0.5 1.3m2.5-29.3c-0.7 0.1-1.3 0.2-1.9 0.3 0 2.1 0.1 3.9 0.2 5.4 0.8-0.2 1.5-0.4 2.2-0.6-0.2-1.7-0.3-3.4-0.5-5.1m-3.6 0.6-1.8 0.3v0.7l-0.2 4.8c0.5-0.1 0.9-0.1 1.4-0.2 0.2 0 0.5-0.1 0.7-0.1 0-1.8-0.1-3.6-0.1-5.5m-3.7 0.5c-0.6 0.1-1.2 0.2-1.8 0.4-0.2 1.3-0.4 3.1-0.6 5.3 0.7-0.1 1.4-0.1 2.3-0.3 0.1-1.6 0.1-2.9 0.1-3.6v-1.5-0.3m9.6-4.9c-0.4 0-0.6-0.1-0.6-0.4 0.6-2.5 0.9-4.2 1.1-5.2 0.1-1 0.2-1.8 0.4-2.6l0.3-2.1c0-0.6 0.1-0.9 0.2-0.9 0.4 0 0.8 0.6 1.3 1.7 0.7 1.2 1 2 1 2.4 0 0.3-0.2 0.5-0.5 0.6-0.3 0.4-0.6 1-0.9 1.7-0.3 1.1-1.1 2.7-2.3 4.8m-3.7-0.7c-0.2-0.2-0.4-0.7-0.6-1.7-0.3-1-0.6-1.8-1-2.6-0.4-1.1-0.7-2.2-0.7-3.3 0-0.5 0.2-0.8 0.6-0.8 0.6 0.7 1.2 1.1 1.7 1.4 0.6 0.2 0.8 1.5 0.8 3.7 0 1.1-0.1 1.9-0.3 2.6-0.2 0.5-0.4 0.7-0.5 0.7m-5.5 0.5c-0.2-0.2-0.4-0.7-0.6-1.6-0.3-0.9-0.7-1.7-1.1-2.6-0.5-1-0.7-2.1-0.8-3.1 0-0.6 0.2-0.9 0.6-0.9 0.7 0.6 1.3 1.1 1.9 1.3s0.9 1.5 0.9 3.6c0 1-0.1 1.8-0.3 2.6-0.3 0.4-0.5 0.6-0.6 0.7m-3.8 1.4c-0.2 0-1.3-0.8-3.1-2.5-0.6-0.7-1.1-1.2-1.5-1.3-0.2-0.4-0.3-2-0.3-4.8 0-0.7 0.1-1.4 0.4-2.3 0.2-0.7 0.5-1.1 0.7-1.1s0.3 0.3 0.5 0.9c1 3.4 2 6.4 3.1 9 0.4 0.6 0.6 1.1 0.6 1.4 0 0.5-0.2 0.7-0.4 0.7m17.5-33.6c-0.2 0-0.5-0.1-1.1-0.4-0.2 0.1-0.4 0.3-0.6 0.4-2.1 1-5.1 1.8-9 2.5-2.8 0.6-5.1 0.8-7 0.8-2.6 0-4.5-0.5-5.7-1.5-0.7-0.7-1.1-1.4-1.1-2 0-0.2 0.1-0.4 0.2-0.7 0.4-0.8 0.7-2.2 0.9-4.3 0.9-8.6 1.8-13.9 2.6-15.9 0.5-2 0.9-3.7 1.2-5.1 0.1-1.1 0.4-1.6 0.8-1.6 0.2 0 0.4 0.1 0.6 0.4 0.6 0.8 1.3 1.7 2.1 2.6 0.4 0.4 0.9 1.2 1.6 2.4 0.9-0.1 1.8-0.4 2.9-0.7 1.2-0.3 2.3-0.5 3.3-0.7 1.4-0.2 2.8-0.5 4.3-1 0.1 0 0.2 0.1 0.3 0.2 0.2 0 0.5-0.1 0.8-0.2 0.6 0 1.5 2.5 2.5 7.4 0.9 5.5 1.4 10.9 1.4 16.4 0 0.7-0.3 1-1 1m-3.8-20.6c-0.1 0.1-0.2 0.1-0.3 0.1-7.4 1.2-11.3 1.8-11.6 1.9-0.5-0.1-0.7-0.9-0.7-2.3v-0.5c-0.6 0.7-1.1 2.2-1.6 4.6-1.1 5.7-1.7 10.4-1.7 14.2 0 1.8 1.3 2.7 3.6 2.7 1.6 0 3.9-0.3 6.7-1 2.6-0.9 4.9-2.1 6.7-3.4 0.2-2.6 0.2-4.6 0.2-6 0.2-2.5-0.3-6-1.3-10.3m-2 14.5-1-0.3c-2.6 0.9-4.5 1.4-5.7 1.5l-1.5 0.3c-0.5 0-1-0.4-1.7-1.1-0.6-0.7-0.8-1.4-0.8-1.9 0-0.2 0.2-0.5 0.5-0.8 0.4-0.5 1-2.4 1.9-5.6 0.2-0.9 0.4-1.3 0.7-1.4 0.3 0 0.7 0.2 1.1 0.7 2.3-0.6 3.7-1.1 4-1.4 0.2-0.2 0.4-0.2 0.6-0.2 0.5 0 1 1.5 1.7 4.3 0.5 2.3 0.7 3.8 0.7 4.6-0.2 0.9-0.3 1.3-0.5 1.3m-2.7-6.5c-0.4 0-1.4 0.2-2.9 0.6-0.3 0-0.6 0.2-0.8 0.7-0.3 0.8-0.5 1.6-0.5 2.4 0 1.1 0.2 1.6 0.5 1.6 0.5 0 1.2-0.1 2.1-0.5 1.1-0.5 1.6-1 1.6-1.4 0.1-2.3 0.1-3.4 0-3.4m-9.2-40c-0.4-0.1-0.8-1.6-1.2-4.3 0-0.4 0.3-0.7 0.8-0.8 2.7-1.5 5.1-2.6 7.1-3.4 0.1-0.4 0.1-0.8 0.2-1.2v-0.1c-0.4-1.4-2-3.9-4.6-7.5-3.1-4-5.4-6.6-7.1-7.9-1.2-0.7-2.2-1.6-3.1-2.7-0.7-0.6-1.1-1.2-1.1-1.6 0.1-0.4 0.4-0.7 0.9-0.7 2.8 0 5.1 0.3 7 0.8 1.1 0.4 1.7 1.1 1.8 2.1 0 1.4 0.2 2.4 0.6 3.1 1.5 3.1 3.6 6 6.4 8.8l0.1 0.1c1-3.8 2.7-7.3 5.1-10.5 0.9-1.1 1.5-2.1 1.8-2.9 0.2-0.5 0.3-0.8 0.5-0.8 1.1 0.2 2.1 0.4 2.9 0.4 0.6 0 1.3 0.3 2.3 1 0.5 0.4 0.8 0.7 0.8 0.9 0 0.4-0.2 0.7-0.6 0.8-3.2 0.7-5.9 2.7-8.1 6.1-1.3 2.5-2.3 6.1-3 10.8 0.3-0.1 0.6-0.1 0.9-0.2 2.1-0.4 3.6-1 4.6-1.6 0.3 0 0.6 1.1 0.9 3.4 0.1 1.2 0.2 2.1 0.3 2.6-0.1 0.7-0.3 1.1-0.8 1.2-2.4 0.1-4.6 0.4-6.6 0.9-0.5 4.2-0.7 8.4-0.7 12.4l0.3 2.9c0 0.6-0.4 0.9-1.2 1-0.4 0-1-0.1-1.7-0.5-0.8-0.3-1.2-0.8-1.2-1.4 0-0.2 0.2-0.5 0.6-0.9 0.4-0.7 0.7-1.6 0.9-2.9 0.1-3.1 0.2-6.3 0.5-9.7v-0.2c-1.5 0.4-2.9 1-4.2 1.7-1.1 0.5-1.7 0.7-2.1 0.8m0.4-56.3c0.7 0 1.9-0.1 3.7-0.4 0.2-2 0.4-4.2 0.7-6.6 0.3-2.2 0.6-4.1 0.9-5.7-1.2-1-2.8-2.7-4.7-5.1-1.1-1.5-2.2-2.4-3.3-2.8-0.6-0.2-1.8-1-3.5-2.3-1-0.6-1.9-1.6-2.7-2.9 0-0.7 1.2-1.1 3.7-1.1 1.9 0.6 3.5 1 4.6 1 0.7 0 1 0.5 1.1 1.5 0 2 0.5 3.4 1.4 4.4s1.8 1.9 2.8 2.5c0.3 0.2 0.8 0.5 1.4 1 0.1-0.2 0.1-0.4 0.2-0.6 0.8-2.3 2.1-3.7 3.7-4.3 1.6-0.8 2.7-1.6 3.1-2.3 0.4-0.5 0.9-0.8 1.6-0.8 2.6 0 4.2 0.6 4.9 1.8 0.4 0.8 0.6 1.3 0.8 1.6 0.3 0.2 0.4 0.5 0.4 0.7 0 0.4-0.2 0.6-0.7 0.6-0.3 0-0.7-0.1-1.3-0.3-1-0.4-1.9-0.6-2.7-0.6-0.9 0-1.9 0.4-2.8 1.1-1.8 1-3 2-3.6 3.1-0.3 0.4-0.6 1.1-0.9 2 0.6 0.4 1.2 1 1.8 1.5 0.8 0.7 1.5 1.1 2 1.1 0.3 0.1 0.5 1.4 0.5 3.7 0 1.6-0.3 2.4-0.9 2.4-0.4 0-0.8-0.5-1.3-1.6-0.5-1.2-1.3-2.4-2.6-3.5-0.1-0.1-0.2-0.3-0.4-0.4-0.2 1.1-0.5 2.3-0.7 3.6-0.3 1.6-0.5 3.8-0.8 6.6 0.2 0 0.4-0.1 0.6-0.1 2.8-0.6 5.3-1.5 7.3-2.8 0.2 0 0.6 0.4 1 1.3 0.4 1.3 0.7 2.1 0.7 2.3 0 0.4-0.3 0.7-0.8 0.9-1.4 0.1-3.2 0.5-5.5 1.4-1.1 0.3-2.4 0.6-3.7 1-0.2 2.5-0.4 5.3-0.6 8.4 0 0.4 0.1 1 0.2 1.7 0.2 0.5 0.3 0.9 0.3 1.1 0 0.4-0.4 0.6-1.1 0.6s-1.4-0.2-2.1-0.7c-0.5-0.2-0.8-0.4-0.8-0.7 0-0.2 0.1-0.5 0.2-0.8 0.3-0.4 0.5-1.6 0.6-3.6 0-1.5 0.1-3.4 0.3-5.5-1.2 0.2-2.2 0.5-3 1-0.7 0.4-1.3 0.6-1.6 0.6-0.5 0-1.1-1.7-1.7-5.1 0-0.4 0.3-0.7 0.8-0.7l2.5 0.8m1.1-44.4c-0.2 0-0.3-0.7-0.4-2 0-1 0.2-1.6 0.6-1.8 2.1-1.6 3.7-2.7 4.8-3.4 0.1-1.5 0.2-2.9 0.3-4.2-2.5 0.8-4.6 1.7-6.4 2.7-0.3-0.1-0.9-1.8-1.8-5.1 0.1-0.7 0.3-1.1 0.8-1.1 2.9-0.3 5.3-0.6 7.3-1-0.6-1.5-2.1-3.8-4.4-6.9-3.1-3.9-5.4-6.5-7.1-7.8-1.2-0.7-2.2-1.5-3.1-2.6-0.7-0.7-1.1-1.2-1.1-1.6 0.1-0.4 0.4-0.6 0.9-0.6 2.8 0 5.1 0.3 7 0.8 1.1 0.4 1.7 1.1 1.8 2.1 0 1.4 0.2 2.5 0.6 3.1 1.5 3.1 3.6 6 6.4 8.7 0.1 0.1 0.3 0.2 0.4 0.3 0.5-2 1.1-3.6 1.8-4.8 0.7-1.4 1.2-2.8 1.4-4.5 1.5-1.7 3.1-3 4.6-3.9 1.2-0.4 2.2-0.6 3-0.6 1 0 1.5 0.2 1.5 0.7 0 0.1-0.4 0.4-1.1 1-2.8 2.2-5.1 4.7-6.8 7.4-1.2 2.1-2.1 4.9-2.7 8.3 0.7-0.2 1.3-0.4 1.9-0.7 1.6-0.6 2.8-0.9 3.7-0.9 0.4 0 1 1.3 1.9 3.8 0 0.5-0.2 0.8-0.6 0.9-2.8 0.4-5.3 0.8-7.5 1.4-0.2 1.3-0.3 2.8-0.4 4.4l0.1 0.1h1.3c0.3-0.1 0.8-0.3 1.5-0.5 0.6-0.4 1.2-0.7 1.5-0.8 0.2 0 0.4 0.5 0.5 1.5 0 0.9 0.2 1.7 0.3 2.4 0.2 0.6 0.4 1.2 0.4 1.7 0 0.4-0.2 0.7-0.4 0.8l-3.8-0.2c-0.5 0-0.9 0-1.4 0.1v4.5l0.4 7.9c-0.2 0.7-0.5 1-1.1 1-2-0.2-2.9-0.6-2.9-1.3 0.4-2.4 0.7-5.6 1-9.7 0-0.6 0-1.2 0.1-1.7-0.8 0.3-1.6 0.7-2.4 1.1-1.4 0.7-2.2 1-2.4 1"/>
</g>
</svg>
